<?xml version="1.0" encoding="utf-8"?>
<!-- Generator: Adobe Illustrator 16.0.0, SVG Export Plug-In . SVG Version: 6.00 Build 0)  -->
<!DOCTYPE svg PUBLIC "-//W3C//DTD SVG 1.1//EN" "http://www.w3.org/Graphics/SVG/1.1/DTD/svg11.dtd">
<svg version="1.1" id="Layer_1" xmlns="http://www.w3.org/2000/svg" xmlns:xlink="http://www.w3.org/1999/xlink" x="0px" y="0px"
	 width="56.5px" height="56.6px" viewBox="0 0 56.5 56.6" enable-background="new 0 0 56.5 56.6" xml:space="preserve">
<g>
	<path fill="#BFBFBF" d="M47.06,3.277H9.436c-3.326,0-6.03,2.706-6.03,6.033v37.623c0,3.329,2.704,6.035,6.03,6.035H47.06
		c3.326,0,6.035-2.706,6.035-6.035V9.31C53.095,5.983,50.386,3.277,47.06,3.277z M32.492,38.841l-4.518-6.829l-4.16,6.829h-6.283
		l7.493-11.254L18.33,17.404h6.447l3.691,5.584l3.418-5.584h6.282l-6.751,10.011l7.55,11.427H32.492z"/>
	<polygon fill="#FFFFFF" points="38.169,17.404 31.887,17.404 28.469,22.988 24.777,17.404 18.33,17.404 25.024,27.587 
		17.531,38.841 23.814,38.841 27.975,32.012 32.492,38.841 38.968,38.841 31.418,27.414 	"/>
</g>
</svg>
