<?xml version="1.0" encoding="utf-8"?>
<!-- Generator: Adobe Illustrator 16.0.0, SVG Export Plug-In . SVG Version: 6.00 Build 0)  -->
<!DOCTYPE svg PUBLIC "-//W3C//DTD SVG 1.1//EN" "http://www.w3.org/Graphics/SVG/1.1/DTD/svg11.dtd">
<svg version="1.1" xmlns="http://www.w3.org/2000/svg" xmlns:xlink="http://www.w3.org/1999/xlink" x="0px" y="0px" width="56.5px"
	 height="56.6px" viewBox="0 0 56.5 56.6" enable-background="new 0 0 56.5 56.6" xml:space="preserve">
<g id="Layer_9">
</g>
<g id="Bracket">
</g>
<g id="Nav">
	<path fill="#3B5999" d="M47.217,2.638H9.592c-3.326,0-6.035,2.706-6.035,6.034v37.624c0,3.327,2.709,6.033,6.035,6.033h37.625
		c3.326,0,6.031-2.706,6.031-6.033V8.672C53.248,5.344,50.543,2.638,47.217,2.638z M44.498,30.268h-6.831v18.283h-6.958V30.268
		h-4.834v-6.586h4.834v-5.621c0-4.418,2.85-8.477,9.432-8.477c2.666,0,4.636,0.255,4.636,0.255l-0.155,6.146
		c0,0-2.007-0.019-4.197-0.019c-2.375,0-2.757,1.098-2.757,2.914v4.801h7.147L44.498,30.268z"/>
</g>
<g id="Round">
</g>
<g id="Team_Info">
	<g id="Team_Name">
	</g>
	<g id="Score">
	</g>
	<g id="Seed">
	</g>
</g>
<g id="PopOut">
</g>
<g id="Hover_x2F_Click">
</g>
<g id="DesktopWeb">
	<g id="FIrst_Round">
	</g>
	<g id="Second_Round" display="none">
	</g>
	<g id="Regional_Semis" display="none">
	</g>
	<g id="Regional_FInals" display="none">
	</g>
	<g id="National_Semis" display="none">
	</g>
	<g id="National_Champ" display="none">
	</g>
</g>
</svg>
