<?xml version="1.0" encoding="utf-8"?>
<!-- Generator: Adobe Illustrator 16.0.0, SVG Export Plug-In . SVG Version: 6.00 Build 0)  -->
<!DOCTYPE svg PUBLIC "-//W3C//DTD SVG 1.1//EN" "http://www.w3.org/Graphics/SVG/1.1/DTD/svg11.dtd">
<svg version="1.1" xmlns="http://www.w3.org/2000/svg" xmlns:xlink="http://www.w3.org/1999/xlink" x="0px" y="0px" width="56.5px"
	 height="56.6px" viewBox="0 0 56.5 56.6" enable-background="new 0 0 56.5 56.6" xml:space="preserve">
<g id="Layer_9">
</g>
<g id="Bracket">
</g>
<g id="Nav">
</g>
<g id="Round">
</g>
<g id="Team_Info">
	<g id="Team_Name">
	</g>
	<g id="Score">
	</g>
	<g id="Seed">
	</g>
</g>
<g id="PopOut">
</g>
<g id="Hover_x2F_Click">
</g>
<g id="DesktopWeb">
	<g id="FIrst_Round">
		<g>
			<g>
				<path fill="#BCBEC0" d="M22.412,28.408c-1.964,0-2.043,0.082-2.043,1.313v5.776c0,4.298,0.201,4.873,2.496,5.119l1.188,0.124
					c0.245,0.161,0.159,0.903-0.085,1.021c-2.21-0.081-3.599-0.119-5.202-0.119c-1.757,0-3.151,0.078-4.748,0.119
					c-0.247-0.119-0.331-0.777-0.085-1.021l0.702-0.124c2.289-0.408,2.374-0.82,2.374-5.119V20.75c0-4.301-0.288-4.998-2.416-5.162
					l-1.071-0.083c-0.244-0.163-0.164-0.898,0.08-1.023c2.013,0.042,3.407,0.125,5.164,0.125c1.604,0,2.992-0.042,4.754-0.125
					c0.244,0.125,0.325,0.86,0.085,1.023l-0.782,0.083c-2.374,0.248-2.453,0.86-2.453,5.162v4.711c0,1.269,0.079,1.309,2.043,1.309
					h11.713c1.969,0,2.049-0.04,2.049-1.309V20.75c0-4.301-0.08-4.914-2.497-5.162l-0.781-0.083
					c-0.239-0.163-0.165-0.898,0.084-1.023c1.89,0.083,3.279,0.125,4.956,0.125c1.598,0,2.993-0.042,4.834-0.125
					c0.246,0.125,0.325,0.86,0.081,1.023l-0.857,0.083c-2.381,0.248-2.46,0.86-2.46,5.162v14.748c0,4.298,0.079,4.832,2.46,5.119
					l0.984,0.124c0.24,0.161,0.159,0.903-0.084,1.021c-1.965-0.081-3.36-0.119-4.958-0.119c-1.677,0-3.15,0.038-4.956,0.119
					c-0.249-0.119-0.323-0.777-0.084-1.021l0.781-0.124c2.497-0.408,2.497-0.82,2.497-5.119v-5.776c0-1.231-0.08-1.313-2.049-1.313
					H22.412z"/>
			</g>
			<path fill="#BCBEC0" d="M47.062,52.968H9.438c-3.325,0-6.03-2.707-6.03-6.033V9.312c0-3.329,2.705-6.035,6.03-6.035h37.625
				c3.325,0,6.03,2.706,6.03,6.035v37.623C53.093,50.262,50.388,52.968,47.062,52.968z M9.438,6.456
				c-1.572,0-2.854,1.28-2.854,2.856v37.623c0,1.574,1.282,2.854,2.854,2.854h37.625c1.573,0,2.854-1.28,2.854-2.854V9.312
				c0-1.577-1.281-2.856-2.854-2.856H9.438z"/>
		</g>
	</g>
	<g id="Second_Round" display="none">
	</g>
	<g id="Regional_Semis" display="none">
	</g>
	<g id="Regional_FInals" display="none">
	</g>
	<g id="National_Semis" display="none">
	</g>
	<g id="National_Champ" display="none">
	</g>
</g>
</svg>
