<?xml version="1.0" encoding="utf-8"?>
<!-- Generator: Adobe Illustrator 16.0.0, SVG Export Plug-In . SVG Version: 6.00 Build 0)  -->
<!DOCTYPE svg PUBLIC "-//W3C//DTD SVG 1.1//EN" "http://www.w3.org/Graphics/SVG/1.1/DTD/svg11.dtd">
<svg version="1.1" xmlns="http://www.w3.org/2000/svg" xmlns:xlink="http://www.w3.org/1999/xlink" x="0px" y="0px" width="56.5px"
	 height="56.6px" viewBox="0 0 56.5 56.6" enable-background="new 0 0 56.5 56.6" xml:space="preserve">
<g id="Layer_9">
</g>
<g id="Bracket">
</g>
<g id="Nav">
	<path fill="#5FA9DD" d="M47.064,3.277H9.435c-3.321,0-6.03,2.706-6.03,6.034v37.624c0,3.327,2.709,6.033,6.03,6.033h37.63
		c3.322,0,6.031-2.706,6.031-6.033V9.312C53.096,5.983,50.387,3.277,47.064,3.277z M41.543,21.302
		c0.014,0.293,0.023,0.594,0.023,0.885c0,9.069-6.902,19.524-19.52,19.524c-3.877,0-7.486-1.135-10.516-3.086
		c0.537,0.066,1.084,0.1,1.635,0.1c3.213,0,6.172-1.097,8.518-2.938c-3-0.058-5.535-2.038-6.402-4.767
		c0.415,0.082,0.848,0.125,1.287,0.125c0.621,0,1.234-0.081,1.804-0.238c-3.138-0.632-5.498-3.406-5.498-6.73
		c0-0.028,0-0.057,0-0.083c0.923,0.509,1.979,0.818,3.104,0.853c-1.842-1.229-3.048-3.325-3.048-5.707
		c0-1.258,0.335-2.437,0.923-3.452c3.388,4.153,8.438,6.886,14.145,7.169c-0.118-0.503-0.18-1.025-0.18-1.563
		c0-3.789,3.072-6.86,6.865-6.86c1.969,0,3.754,0.836,5.003,2.167c1.56-0.309,3.029-0.881,4.358-1.667
		c-0.514,1.602-1.603,2.947-3.016,3.799c1.39-0.168,2.704-0.539,3.938-1.085C44.045,19.127,42.885,20.333,41.543,21.302z"/>
</g>
<g id="Round">
</g>
<g id="Team_Info">
	<g id="Team_Name">
	</g>
	<g id="Score">
	</g>
	<g id="Seed">
	</g>
</g>
<g id="PopOut">
</g>
<g id="Hover_x2F_Click">
</g>
<g id="DesktopWeb">
	<g id="FIrst_Round">
	</g>
	<g id="Second_Round" display="none">
	</g>
	<g id="Regional_Semis" display="none">
	</g>
	<g id="Regional_FInals" display="none">
	</g>
	<g id="National_Semis" display="none">
	</g>
	<g id="National_Champ" display="none">
	</g>
</g>
</svg>
