<?xml version="1.0" encoding="utf-8"?>
<!-- Generator: Adobe Illustrator 16.0.0, SVG Export Plug-In . SVG Version: 6.00 Build 0)  -->
<!DOCTYPE svg PUBLIC "-//W3C//DTD SVG 1.1//EN" "http://www.w3.org/Graphics/SVG/1.1/DTD/svg11.dtd">
<svg version="1.1" xmlns="http://www.w3.org/2000/svg" xmlns:xlink="http://www.w3.org/1999/xlink" x="0px" y="0px" width="320px"
	 height="438.766px" viewBox="0 0 320 438.766" enable-background="new 0 0 320 438.766" xml:space="preserve">
<g id="Layer_9">
</g>
<g id="Bracket">
</g>
<g id="Nav">
	<g>
		<g>
			<rect x="164.529" y="12.476" fill="#E6E7E8" width="36.313" height="6.371"/>
			<rect x="164.529" y="19.353" fill="#E6E7E8" width="36.313" height="6.37"/>
		</g>
		<g>
			<rect x="164.529" y="35.155" fill="#E6E7E8" width="36.313" height="6.371"/>
			<rect x="164.529" y="42.033" fill="#E6E7E8" width="36.313" height="6.37"/>
		</g>
	</g>
	<g>
		<g>
			<rect x="119.651" y="12.729" fill="#E6E7E8" width="36.313" height="6.371"/>
			<rect x="119.651" y="19.606" fill="#E6E7E8" width="36.313" height="6.37"/>
		</g>
		<g>
			<rect x="119.651" y="35.409" fill="#E6E7E8" width="36.313" height="6.371"/>
			<rect x="119.651" y="42.287" fill="#E6E7E8" width="36.313" height="6.37"/>
		</g>
	</g>
	<g>
		<g>
			<rect x="15.25" y="48.264" fill="#E6E7E8" width="36.313" height="6.371"/>
			<rect x="15.25" y="55.141" fill="#E6E7E8" width="36.313" height="6.37"/>
		</g>
		<g>
			<rect x="15.25" y="70.943" fill="#E6E7E8" width="36.313" height="6.371"/>
			<rect x="15.25" y="77.821" fill="#E6E7E8" width="36.313" height="6.37"/>
		</g>
		<g>
			<rect x="15.25" y="93.624" fill="#E6E7E8" width="36.313" height="6.37"/>
			<rect x="15.25" y="100.502" fill="#E6E7E8" width="36.313" height="6.369"/>
		</g>
		<g>
			<rect x="15.25" y="116.305" fill="#E6E7E8" width="36.313" height="6.371"/>
			<rect x="15.25" y="123.182" fill="#E6E7E8" width="36.313" height="6.371"/>
		</g>
		<g>
			<rect x="15.25" y="138.985" fill="#E6E7E8" width="36.313" height="6.37"/>
			<rect x="15.25" y="145.863" fill="#E6E7E8" width="36.313" height="6.371"/>
		</g>
		<g>
			<rect x="15.25" y="161.665" fill="#E6E7E8" width="36.313" height="6.371"/>
			<rect x="15.25" y="168.542" fill="#E6E7E8" width="36.313" height="6.371"/>
		</g>
		<g>
			<rect x="15.25" y="184.346" fill="#E6E7E8" width="36.313" height="6.371"/>
			<rect x="15.25" y="191.223" fill="#E6E7E8" width="36.313" height="6.371"/>
		</g>
		<g>
			<rect x="15.25" y="207.026" fill="#E6E7E8" width="36.313" height="6.37"/>
			<rect x="15.25" y="213.904" fill="#E6E7E8" width="36.313" height="6.37"/>
		</g>
		<g>
			<rect x="53.869" y="59.652" fill="#E6E7E8" width="36.313" height="6.371"/>
			<rect x="53.869" y="66.529" fill="#E6E7E8" width="36.313" height="6.371"/>
		</g>
		<g>
			<rect x="53.869" y="104.964" fill="#E6E7E8" width="36.313" height="6.371"/>
			<rect x="53.869" y="111.842" fill="#E6E7E8" width="36.313" height="6.37"/>
		</g>
		<g>
			<rect x="53.869" y="150.326" fill="#E6E7E8" width="36.313" height="6.37"/>
			<rect x="53.869" y="157.204" fill="#E6E7E8" width="36.313" height="6.37"/>
		</g>
		<g>
			<rect x="53.869" y="195.687" fill="#E6E7E8" width="36.313" height="6.37"/>
			<rect x="53.869" y="202.563" fill="#E6E7E8" width="36.313" height="6.37"/>
		</g>
		<g>
			<rect x="92.607" y="82.333" fill="#E6E7E8" width="36.313" height="6.37"/>
			<rect x="92.607" y="89.21" fill="#E6E7E8" width="36.313" height="6.37"/>
		</g>
		<g>
			<rect x="92.607" y="173.006" fill="#E6E7E8" width="36.313" height="6.371"/>
			<rect x="92.607" y="179.883" fill="#E6E7E8" width="36.313" height="6.37"/>
		</g>
		<g>
			<rect x="110.764" y="127.598" fill="#E6E7E8" width="36.313" height="6.371"/>
			<rect x="110.764" y="134.476" fill="#E6E7E8" width="36.313" height="6.371"/>
		</g>
	</g>
	<g>
		<g>
			<rect x="268.049" y="213.903" fill="#E6E7E8" width="36.313" height="6.371"/>
			<rect x="268.049" y="207.027" fill="#E6E7E8" width="36.313" height="6.37"/>
		</g>
		<g>
			<rect x="268.049" y="191.224" fill="#E6E7E8" width="36.313" height="6.371"/>
			<rect x="268.049" y="184.347" fill="#E6E7E8" width="36.313" height="6.37"/>
		</g>
		<g>
			<rect x="268.049" y="168.544" fill="#E6E7E8" width="36.313" height="6.37"/>
			<rect x="268.049" y="161.667" fill="#E6E7E8" width="36.313" height="6.369"/>
		</g>
		<g>
			<rect x="268.049" y="145.863" fill="#E6E7E8" width="36.313" height="6.371"/>
			<rect x="268.049" y="138.985" fill="#E6E7E8" width="36.313" height="6.371"/>
		</g>
		<g>
			<rect x="268.049" y="123.183" fill="#E6E7E8" width="36.313" height="6.37"/>
			<rect x="268.049" y="116.305" fill="#E6E7E8" width="36.313" height="6.371"/>
		</g>
		<g>
			<rect x="268.049" y="100.502" fill="#E6E7E8" width="36.313" height="6.371"/>
			<rect x="268.049" y="93.625" fill="#E6E7E8" width="36.313" height="6.371"/>
		</g>
		<g>
			<rect x="268.049" y="77.822" fill="#E6E7E8" width="36.313" height="6.371"/>
			<rect x="268.049" y="70.945" fill="#E6E7E8" width="36.313" height="6.371"/>
		</g>
		<g>
			<rect x="268.049" y="55.142" fill="#E6E7E8" width="36.313" height="6.37"/>
			<rect x="268.049" y="48.264" fill="#E6E7E8" width="36.313" height="6.37"/>
		</g>
		<g>
			<rect x="229.431" y="202.516" fill="#E6E7E8" width="36.312" height="6.371"/>
			<rect x="229.431" y="195.638" fill="#E6E7E8" width="36.312" height="6.371"/>
		</g>
		<g>
			<rect x="229.431" y="157.204" fill="#E6E7E8" width="36.312" height="6.371"/>
			<rect x="229.431" y="150.326" fill="#E6E7E8" width="36.312" height="6.37"/>
		</g>
		<g>
			<rect x="229.431" y="111.842" fill="#E6E7E8" width="36.312" height="6.37"/>
			<rect x="229.431" y="104.965" fill="#E6E7E8" width="36.312" height="6.37"/>
		</g>
		<g>
			<rect x="229.431" y="66.482" fill="#E6E7E8" width="36.312" height="6.37"/>
			<rect x="229.431" y="59.604" fill="#E6E7E8" width="36.312" height="6.37"/>
		</g>
		<g>
			<rect x="190.691" y="179.835" fill="#E6E7E8" width="36.313" height="6.37"/>
			<rect x="190.691" y="172.958" fill="#E6E7E8" width="36.313" height="6.37"/>
		</g>
		<g>
			<rect x="190.691" y="89.162" fill="#E6E7E8" width="36.313" height="6.371"/>
			<rect x="190.691" y="82.285" fill="#E6E7E8" width="36.313" height="6.37"/>
		</g>
	</g>
	<g>
		<rect x="172.535" y="134.569" fill="#E6E7E8" width="36.313" height="6.371"/>
		<rect x="172.535" y="127.692" fill="#E6E7E8" width="36.313" height="6.371"/>
	</g>
	<g>
		<g>
			<rect x="15.637" y="254.869" fill="#E6E7E8" width="36.313" height="6.371"/>
			<rect x="15.637" y="261.747" fill="#E6E7E8" width="36.313" height="6.37"/>
		</g>
		<g>
			<rect x="15.637" y="277.548" fill="#E6E7E8" width="36.313" height="6.371"/>
			<rect x="15.637" y="284.427" fill="#E6E7E8" width="36.313" height="6.369"/>
		</g>
		<g>
			<rect x="15.637" y="300.23" fill="#E6E7E8" width="36.313" height="6.369"/>
			<rect x="15.637" y="307.107" fill="#E6E7E8" width="36.313" height="6.369"/>
		</g>
		<g>
			<rect x="15.637" y="322.91" fill="#E6E7E8" width="36.313" height="6.371"/>
			<rect x="15.637" y="329.788" fill="#E6E7E8" width="36.313" height="6.37"/>
		</g>
		<g>
			<rect x="15.637" y="345.59" fill="#E6E7E8" width="36.313" height="6.37"/>
			<rect x="15.637" y="352.468" fill="#E6E7E8" width="36.313" height="6.371"/>
		</g>
		<g>
			<rect x="15.637" y="368.271" fill="#E6E7E8" width="36.313" height="6.37"/>
			<rect x="15.637" y="375.148" fill="#E6E7E8" width="36.313" height="6.37"/>
		</g>
		<g>
			<rect x="15.637" y="390.951" fill="#E6E7E8" width="36.313" height="6.371"/>
			<rect x="15.637" y="397.828" fill="#E6E7E8" width="36.313" height="6.371"/>
		</g>
		<g>
			<rect x="15.637" y="413.632" fill="#E6E7E8" width="36.313" height="6.369"/>
			<rect x="15.637" y="420.509" fill="#E6E7E8" width="36.313" height="6.371"/>
		</g>
		<g>
			<rect x="54.256" y="266.257" fill="#E6E7E8" width="36.313" height="6.371"/>
			<rect x="54.256" y="273.134" fill="#E6E7E8" width="36.313" height="6.371"/>
		</g>
		<g>
			<rect x="54.256" y="311.57" fill="#E6E7E8" width="36.313" height="6.37"/>
			<rect x="54.256" y="318.448" fill="#E6E7E8" width="36.313" height="6.37"/>
		</g>
		<g>
			<rect x="54.256" y="356.931" fill="#E6E7E8" width="36.313" height="6.37"/>
			<rect x="54.256" y="363.809" fill="#E6E7E8" width="36.313" height="6.37"/>
		</g>
		<g>
			<rect x="54.256" y="402.292" fill="#E6E7E8" width="36.313" height="6.369"/>
			<rect x="54.256" y="409.169" fill="#E6E7E8" width="36.313" height="6.369"/>
		</g>
		<g>
			<rect x="92.994" y="288.938" fill="#E6E7E8" width="36.313" height="6.37"/>
			<rect x="92.994" y="295.816" fill="#E6E7E8" width="36.313" height="6.369"/>
		</g>
		<g>
			<rect x="92.994" y="379.611" fill="#E6E7E8" width="36.313" height="6.371"/>
			<rect x="92.994" y="386.488" fill="#E6E7E8" width="36.313" height="6.371"/>
		</g>
		<g>
			<rect x="111.151" y="334.204" fill="#E6E7E8" width="36.313" height="6.371"/>
			<rect x="111.151" y="341.082" fill="#E6E7E8" width="36.313" height="6.37"/>
		</g>
	</g>
	<g>
		<g>
			<rect x="268.437" y="420.509" fill="#E6E7E8" width="36.313" height="6.371"/>
			<rect x="268.437" y="413.632" fill="#E6E7E8" width="36.313" height="6.37"/>
		</g>
		<g>
			<rect x="268.437" y="397.83" fill="#E6E7E8" width="36.313" height="6.371"/>
			<rect x="268.437" y="390.953" fill="#E6E7E8" width="36.313" height="6.369"/>
		</g>
		<g>
			<rect x="268.437" y="375.15" fill="#E6E7E8" width="36.313" height="6.369"/>
			<rect x="268.437" y="368.273" fill="#E6E7E8" width="36.313" height="6.369"/>
		</g>
		<g>
			<rect x="268.437" y="352.468" fill="#E6E7E8" width="36.313" height="6.371"/>
			<rect x="268.437" y="345.591" fill="#E6E7E8" width="36.313" height="6.37"/>
		</g>
		<g>
			<rect x="268.437" y="329.789" fill="#E6E7E8" width="36.313" height="6.37"/>
			<rect x="268.437" y="322.91" fill="#E6E7E8" width="36.313" height="6.371"/>
		</g>
		<g>
			<rect x="268.437" y="307.108" fill="#E6E7E8" width="36.313" height="6.37"/>
			<rect x="268.437" y="300.231" fill="#E6E7E8" width="36.313" height="6.37"/>
		</g>
		<g>
			<rect x="268.437" y="284.427" fill="#E6E7E8" width="36.313" height="6.371"/>
			<rect x="268.437" y="277.55" fill="#E6E7E8" width="36.313" height="6.371"/>
		</g>
		<g>
			<rect x="268.437" y="261.748" fill="#E6E7E8" width="36.313" height="6.369"/>
			<rect x="268.437" y="254.869" fill="#E6E7E8" width="36.313" height="6.371"/>
		</g>
		<g>
			<rect x="229.818" y="409.121" fill="#E6E7E8" width="36.312" height="6.371"/>
			<rect x="229.818" y="402.244" fill="#E6E7E8" width="36.312" height="6.371"/>
		</g>
		<g>
			<rect x="229.818" y="363.809" fill="#E6E7E8" width="36.312" height="6.37"/>
			<rect x="229.818" y="356.931" fill="#E6E7E8" width="36.312" height="6.37"/>
		</g>
		<g>
			<rect x="229.818" y="318.448" fill="#E6E7E8" width="36.312" height="6.37"/>
			<rect x="229.818" y="311.57" fill="#E6E7E8" width="36.312" height="6.37"/>
		</g>
		<g>
			<rect x="229.818" y="273.087" fill="#E6E7E8" width="36.312" height="6.369"/>
			<rect x="229.818" y="266.21" fill="#E6E7E8" width="36.312" height="6.369"/>
		</g>
		<g>
			<rect x="191.079" y="386.441" fill="#E6E7E8" width="36.313" height="6.37"/>
			<rect x="191.079" y="379.564" fill="#E6E7E8" width="36.313" height="6.369"/>
		</g>
		<g>
			<rect x="191.079" y="295.767" fill="#E6E7E8" width="36.313" height="6.371"/>
			<rect x="191.079" y="288.89" fill="#E6E7E8" width="36.313" height="6.371"/>
		</g>
		<g>
			<rect x="172.922" y="341.174" fill="#E6E7E8" width="36.313" height="6.371"/>
			<rect x="172.922" y="334.297" fill="#E6E7E8" width="36.313" height="6.37"/>
		</g>
	</g>
	<g>
		<rect x="211.565" y="238.626" fill="#E6E7E8" width="36.314" height="6.371"/>
		<rect x="211.565" y="231.75" fill="#E6E7E8" width="36.314" height="6.37"/>
	</g>
	<g>
		<rect x="72.412" y="238.328" fill="#E6E7E8" width="36.315" height="6.37"/>
		<rect x="72.412" y="231.451" fill="#E6E7E8" width="36.315" height="6.37"/>
	</g>
	<g>
		<rect x="127.213" y="238.279" fill="#E6E7E8" width="65.074" height="11.416"/>
		<rect x="127.213" y="225.956" fill="#E6E7E8" width="65.074" height="11.415"/>
	</g>
</g>
<g id="Round">
</g>
<g id="Team_Info">
	<g id="Team_Name">
	</g>
	<g id="Score">
	</g>
	<g id="Seed">
	</g>
</g>
<g id="PopOut">
</g>
<g id="Hover_x2F_Click">
</g>
<g id="DesktopWeb">
	<g id="FIrst_Round" display="none">
	</g>
	<g id="Second_Round" display="none">
	</g>
	<g id="Regional_Semis" display="none">
	</g>
	<g id="Regional_FInals" display="none">
	</g>
	<g id="National_Semis" display="none">
	</g>
	<g id="National_Champ">
	</g>
</g>
</svg>
