<?xml version="1.0" encoding="utf-8"?>
<!-- Generator: Adobe Illustrator 16.0.0, SVG Export Plug-In . SVG Version: 6.00 Build 0)  -->
<!DOCTYPE svg PUBLIC "-//W3C//DTD SVG 1.1//EN" "http://www.w3.org/Graphics/SVG/1.1/DTD/svg11.dtd">
<svg version="1.1" xmlns="http://www.w3.org/2000/svg" xmlns:xlink="http://www.w3.org/1999/xlink" x="0px" y="0px" width="162px"
	 height="196.502px" viewBox="0 0 162 196.502" enable-background="new 0 0 162 196.502" xml:space="preserve">
<g id="Layer_9">
</g>
<g id="Bracket">
	<g>
		<g>
			<rect x="110.6" y="177.885" fill="#E6E7E8" width="36.313" height="6.371"/>
			<rect x="110.6" y="171.009" fill="#E6E7E8" width="36.313" height="6.37"/>
		</g>
		<g>
			<rect x="110.6" y="155.206" fill="#E6E7E8" width="36.313" height="6.371"/>
			<rect x="110.6" y="148.329" fill="#E6E7E8" width="36.313" height="6.37"/>
		</g>
		<g>
			<rect x="110.6" y="132.526" fill="#E6E7E8" width="36.313" height="6.37"/>
			<rect x="110.6" y="125.649" fill="#E6E7E8" width="36.313" height="6.369"/>
		</g>
		<g>
			<rect x="110.6" y="109.845" fill="#E6E7E8" width="36.313" height="6.371"/>
			<rect x="110.6" y="102.967" fill="#E6E7E8" width="36.313" height="6.371"/>
		</g>
		<g>
			<rect x="110.6" y="87.165" fill="#E6E7E8" width="36.313" height="6.37"/>
			<rect x="110.6" y="80.287" fill="#E6E7E8" width="36.313" height="6.371"/>
		</g>
		<g>
			<rect x="110.6" y="64.484" fill="#E6E7E8" width="36.313" height="6.371"/>
			<rect x="110.6" y="57.607" fill="#E6E7E8" width="36.313" height="6.371"/>
		</g>
		<g>
			<rect x="110.6" y="41.804" fill="#E6E7E8" width="36.313" height="6.371"/>
			<rect x="110.6" y="34.927" fill="#E6E7E8" width="36.313" height="6.371"/>
		</g>
		<g>
			<rect x="110.6" y="19.124" fill="#E6E7E8" width="36.313" height="6.37"/>
			<rect x="110.6" y="12.246" fill="#E6E7E8" width="36.313" height="6.37"/>
		</g>
		<g>
			<rect x="71.982" y="166.498" fill="#E6E7E8" width="36.312" height="6.371"/>
			<rect x="71.982" y="159.62" fill="#E6E7E8" width="36.312" height="6.371"/>
		</g>
		<g>
			<rect x="71.982" y="121.186" fill="#E6E7E8" width="36.312" height="6.371"/>
			<rect x="71.982" y="114.308" fill="#E6E7E8" width="36.312" height="6.37"/>
		</g>
		<g>
			<rect x="71.982" y="75.824" fill="#E6E7E8" width="36.312" height="6.37"/>
			<rect x="71.982" y="68.947" fill="#E6E7E8" width="36.312" height="6.37"/>
		</g>
		<g>
			<rect x="71.982" y="30.464" fill="#E6E7E8" width="36.312" height="6.37"/>
			<rect x="71.982" y="23.586" fill="#E6E7E8" width="36.312" height="6.37"/>
		</g>
		<g>
			<rect x="33.243" y="143.817" fill="#E6E7E8" width="36.313" height="6.37"/>
			<rect x="33.243" y="136.94" fill="#E6E7E8" width="36.313" height="6.37"/>
		</g>
		<g>
			<rect x="33.243" y="53.144" fill="#E6E7E8" width="36.313" height="6.371"/>
			<rect x="33.243" y="46.267" fill="#E6E7E8" width="36.313" height="6.37"/>
		</g>
	</g>
	<g>
		<rect x="15.086" y="98.551" fill="#E6E7E8" width="36.313" height="6.371"/>
		<rect x="15.086" y="91.674" fill="#E6E7E8" width="36.313" height="6.371"/>
	</g>
</g>
<g id="Nav">
</g>
<g id="Round">
</g>
<g id="Team_Info">
	<g id="Team_Name">
	</g>
	<g id="Score">
	</g>
	<g id="Seed">
	</g>
</g>
<g id="PopOut">
</g>
<g id="Hover_x2F_Click">
</g>
<g id="DesktopWeb">
	<g id="FIrst_Round" display="none">
	</g>
	<g id="Second_Round" display="none">
	</g>
	<g id="Regional_Semis" display="none">
	</g>
	<g id="Regional_FInals" display="none">
	</g>
	<g id="National_Semis" display="none">
	</g>
	<g id="National_Champ">
	</g>
</g>
</svg>
