<?xml version="1.0" encoding="utf-8"?>
<!-- Generator: Adobe Illustrator 16.0.0, SVG Export Plug-In . SVG Version: 6.00 Build 0)  -->
<!DOCTYPE svg PUBLIC "-//W3C//DTD SVG 1.1//EN" "http://www.w3.org/Graphics/SVG/1.1/DTD/svg11.dtd">
<svg version="1.1" xmlns="http://www.w3.org/2000/svg" xmlns:xlink="http://www.w3.org/1999/xlink" x="0px" y="0px" width="320px"
	 height="480px" viewBox="0 0 320 480" enable-background="new 0 0 320 480" xml:space="preserve">
<g id="Layer_9" display="none">
</g>
<g id="Bracket" display="none">
	<g display="inline">
		<g>
			<rect x="185.214" y="158.934" fill="#E6E7E8" width="80.004" height="33.416"/>
		</g>
		<rect x="185.214" y="158.326" fill="#BCBEC0" width="80.004" height="1.215"/>
	</g>
	<g display="inline">
		<g>
			<rect x="99.864" y="208.768" fill="#E6E7E8" width="80.004" height="33.416"/>
		</g>
		<rect x="99.864" y="208.16" fill="#BCBEC0" width="80.004" height="1.215"/>
	</g>
	<g display="inline">
		<g>
			<rect x="225.215" y="258.106" fill="#E6E7E8" width="80.004" height="33.416"/>
		</g>
		<rect x="225.215" y="257.499" fill="#BCBEC0" width="80.004" height="1.215"/>
	</g>
	<g display="inline">
		<g>
			<rect x="99.864" y="308.766" fill="#E6E7E8" width="80.004" height="33.416"/>
		</g>
		<rect x="99.864" y="308.159" fill="#BCBEC0" width="80.004" height="1.215"/>
	</g>
	<g display="inline">
		<g>
			<rect x="185.212" y="358.725" fill="#E6E7E8" width="80.004" height="33.416"/>
		</g>
		<rect x="185.212" y="358.118" fill="#BCBEC0" width="80.004" height="1.215"/>
	</g>
	<g display="inline">
		<g>
			<rect x="99.864" y="408.559" fill="#E6E7E8" width="80.004" height="33.416"/>
		</g>
		<rect x="99.864" y="407.952" fill="#BCBEC0" width="80.004" height="1.215"/>
	</g>
	<g display="inline">
		<g>
			<rect x="14.78" y="433.259" fill="#E6E7E8" width="80.004" height="33.416"/>
		</g>
		<rect x="14.78" y="432.652" fill="#BCBEC0" width="80.004" height="1.215"/>
	</g>
	<g display="inline">
		<g>
			<rect x="14.78" y="383.129" fill="#E6E7E8" width="80.004" height="33.416"/>
		</g>
		<rect x="14.78" y="382.522" fill="#BCBEC0" width="80.004" height="1.215"/>
	</g>
	<g display="inline">
		<g>
			<rect x="14.78" y="333.766" fill="#E6E7E8" width="80.004" height="33.416"/>
		</g>
		<rect x="14.78" y="333.159" fill="#BCBEC0" width="80.004" height="1.215"/>
	</g>
	<g display="inline">
		<g>
			<rect x="14.78" y="283.671" fill="#E6E7E8" width="80.004" height="33.416"/>
		</g>
		<rect x="14.78" y="283.064" fill="#BCBEC0" width="80.004" height="1.215"/>
	</g>
	<g display="inline">
		<g>
			<rect x="14.78" y="233.385" fill="#E6E7E8" width="80.004" height="33.416"/>
		</g>
		<rect x="14.78" y="232.777" fill="#BCBEC0" width="80.004" height="1.215"/>
	</g>
	<g display="inline">
		<g>
			<rect x="14.78" y="183.655" fill="#E6E7E8" width="80.004" height="33.417"/>
		</g>
		<rect x="14.78" y="183.048" fill="#BCBEC0" width="80.004" height="1.215"/>
	</g>
	<g display="inline">
		<g>
			<rect x="14.78" y="133.587" fill="#E6E7E8" width="80.004" height="33.417"/>
		</g>
		<rect x="14.78" y="132.98" fill="#BCBEC0" width="80.004" height="1.215"/>
	</g>
	<g display="inline">
		<g>
			<rect x="14.78" y="84.1" fill="#E6E7E8" width="80.004" height="33.417"/>
		</g>
		<rect x="14.78" y="83.492" fill="#BCBEC0" width="80.004" height="1.215"/>
	</g>
	<g display="inline">
		<g>
			<rect x="99.864" y="108.671" fill="#E6E7E8" width="80.004" height="33.417"/>
		</g>
		<rect x="99.864" y="108.064" fill="#BCBEC0" width="80.004" height="1.215"/>
	</g>
</g>
<g id="Lines">
	<g>
		<polyline fill="none" stroke="#E6E7E8" stroke-width="0.5" stroke-miterlimit="10" points="268.22,175.338 296.772,175.338 
			296.772,243.794 		"/>
		<g>
			<polyline fill="none" stroke="#E6E7E8" stroke-width="0.5" stroke-miterlimit="10" points="182.87,125.38 211.425,125.38 
				211.425,145.188 			"/>
			<polyline fill="none" stroke="#E6E7E8" stroke-width="0.5" stroke-miterlimit="10" points="182.87,225.172 211.425,225.172 
				211.425,195.353 			"/>
		</g>
		<g>
			<polyline fill="none" stroke="#E6E7E8" stroke-width="0.5" stroke-miterlimit="10" points="182.87,325.17 211.425,325.17 
				211.425,355.115 			"/>
			<polyline fill="none" stroke="#E6E7E8" stroke-width="0.5" stroke-miterlimit="10" points="182.87,424.963 211.425,424.963 
				211.425,395.144 			"/>
		</g>
		<polyline fill="none" stroke="#E6E7E8" stroke-width="0.5" stroke-miterlimit="10" points="268.218,375.129 296.772,375.129 
			296.772,294.525 		"/>
	</g>
</g>
<g id="Nav" display="none">
	<rect y="-0.012" display="inline" fill="#F1F2F2" width="320" height="33.992"/>
	
		<line display="inline" fill="none" stroke="#BCBEC0" stroke-width="0.5" stroke-miterlimit="10" x1="0" y1="33.98" x2="320" y2="33.98"/>
	<text transform="matrix(1 0 0 1 14.7793 21.6899)" display="inline" font-family="'RobotoSlab-Bold'" font-size="12">EAST</text>
	<g display="inline">
		<g>
			<path fill="#BCBEC0" d="M292.5,455.039c-0.814,0-0.848,0.034-0.848,0.544v2.395c0,1.782,0.084,2.021,1.035,2.123l0.492,0.051
				c0.102,0.066,0.066,0.374-0.035,0.424c-0.916-0.033-1.492-0.05-2.156-0.05c-0.729,0-1.307,0.032-1.969,0.05
				c-0.102-0.05-0.137-0.322-0.035-0.424l0.291-0.051c0.949-0.17,0.984-0.341,0.984-2.123v-6.113c0-1.783-0.119-2.072-1.002-2.14
				l-0.443-0.034c-0.102-0.068-0.068-0.373,0.033-0.424c0.834,0.018,1.412,0.051,2.141,0.051c0.664,0,1.24-0.018,1.971-0.051
				c0.102,0.051,0.135,0.355,0.035,0.424l-0.324,0.034c-0.984,0.103-1.018,0.356-1.018,2.14v1.953c0,0.526,0.033,0.543,0.848,0.543
				h4.855c0.816,0,0.85-0.017,0.85-0.543v-1.953c0-1.783-0.033-2.037-1.035-2.14l-0.324-0.034c-0.1-0.068-0.068-0.373,0.035-0.424
				c0.783,0.033,1.359,0.051,2.055,0.051c0.662,0,1.24-0.018,2.004-0.051c0.102,0.051,0.135,0.355,0.033,0.424l-0.355,0.034
				c-0.986,0.103-1.02,0.356-1.02,2.14v6.113c0,1.782,0.033,2.004,1.02,2.123l0.408,0.051c0.1,0.066,0.066,0.374-0.035,0.424
				c-0.814-0.033-1.393-0.05-2.055-0.05c-0.695,0-1.307,0.017-2.055,0.05c-0.104-0.05-0.135-0.322-0.035-0.424l0.324-0.051
				c1.035-0.17,1.035-0.341,1.035-2.123v-2.395c0-0.51-0.033-0.544-0.85-0.544H292.5z"/>
		</g>
		<path fill="#BCBEC0" d="M302.719,465.221h-15.598c-1.379,0-2.5-1.122-2.5-2.501v-15.598c0-1.379,1.121-2.501,2.5-2.501h15.598
			c1.379,0,2.5,1.122,2.5,2.501v15.598C305.219,464.099,304.098,465.221,302.719,465.221z M287.121,445.938
			c-0.652,0-1.184,0.531-1.184,1.184v15.598c0,0.652,0.531,1.184,1.184,1.184h15.598c0.652,0,1.184-0.531,1.184-1.184v-15.598
			c0-0.652-0.531-1.184-1.184-1.184H287.121z"/>
	</g>
	<g display="inline">
		<path fill="#3B5999" d="M204.498,6.684H188.9c-1.379,0-2.502,1.122-2.502,2.501v15.597c0,1.379,1.123,2.501,2.502,2.501h15.598
			c1.379,0,2.5-1.122,2.5-2.501V9.186C206.998,7.806,205.877,6.684,204.498,6.684z M203.371,18.138h-2.832v7.579h-2.885v-7.579
			h-2.004v-2.73h2.004v-2.33c0-1.832,1.182-3.514,3.91-3.514c1.105,0,1.922,0.106,1.922,0.106l-0.064,2.548
			c0,0-0.832-0.008-1.74-0.008c-0.984,0-1.143,0.455-1.143,1.208v1.99h2.963L203.371,18.138z"/>
		<path fill="#5FA9DD" d="M231.57,6.684h-15.6c-1.377,0-2.5,1.122-2.5,2.501v15.597c0,1.379,1.123,2.501,2.5,2.501h15.6
			c1.377,0,2.5-1.122,2.5-2.501V9.186C234.07,7.806,232.947,6.684,231.57,6.684z M229.281,14.156c0.006,0.122,0.01,0.246,0.01,0.367
			c0,3.76-2.861,8.094-8.092,8.094c-1.607,0-3.104-0.471-4.359-1.279c0.223,0.027,0.449,0.042,0.678,0.042
			c1.332,0,2.559-0.455,3.531-1.218c-1.244-0.024-2.295-0.845-2.654-1.976c0.172,0.034,0.352,0.052,0.533,0.052
			c0.258,0,0.512-0.034,0.748-0.099c-1.301-0.262-2.279-1.412-2.279-2.79c0-0.012,0-0.023,0-0.034
			c0.383,0.211,0.82,0.339,1.287,0.354c-0.764-0.51-1.264-1.378-1.264-2.366c0-0.521,0.139-1.01,0.383-1.431
			c1.404,1.722,3.498,2.854,5.863,2.972c-0.049-0.208-0.074-0.425-0.074-0.648c0-1.571,1.273-2.844,2.846-2.844
			c0.816,0,1.557,0.347,2.074,0.898c0.646-0.128,1.256-0.365,1.807-0.691c-0.213,0.664-0.664,1.222-1.25,1.575
			c0.576-0.07,1.121-0.223,1.633-0.45C230.318,13.255,229.838,13.754,229.281,14.156z"/>
	</g>
	
		<rect x="241.969" y="6.684" display="inline" fill="#FFFFFF" stroke="#BCBEC0" stroke-width="0.5" stroke-miterlimit="10" width="63.25" height="51.25"/>
	<rect x="244.65" y="9.221" display="inline" fill="#C7C8CA" width="57.887" height="46.176"/>
	<g display="inline">
		<g>
			<rect x="248.297" y="12.587" fill="#FFFFFF" width="6.346" height="0.63"/>
			<rect x="248.297" y="13.268" fill="#FFFFFF" width="6.346" height="0.63"/>
		</g>
		<g>
			<rect x="248.297" y="14.832" fill="#FFFFFF" width="6.346" height="0.63"/>
			<rect x="248.297" y="15.512" fill="#FFFFFF" width="6.346" height="0.63"/>
		</g>
		<g>
			<rect x="248.297" y="17.076" fill="#FFFFFF" width="6.346" height="0.63"/>
			<rect x="248.297" y="17.756" fill="#FFFFFF" width="6.346" height="0.63"/>
		</g>
		<g>
			<rect x="248.297" y="19.32" fill="#FFFFFF" width="6.346" height="0.63"/>
			<rect x="248.297" y="20" fill="#FFFFFF" width="6.346" height="0.63"/>
		</g>
		<g>
			<rect x="248.297" y="21.563" fill="#FFFFFF" width="6.346" height="0.63"/>
			<rect x="248.297" y="22.245" fill="#FFFFFF" width="6.346" height="0.63"/>
		</g>
		<g>
			<rect x="248.297" y="23.808" fill="#FFFFFF" width="6.346" height="0.63"/>
			<rect x="248.297" y="24.489" fill="#FFFFFF" width="6.346" height="0.63"/>
		</g>
		<g>
			<rect x="248.297" y="26.052" fill="#FFFFFF" width="6.346" height="0.63"/>
			<rect x="248.297" y="26.732" fill="#FFFFFF" width="6.346" height="0.63"/>
		</g>
		<g>
			<rect x="248.297" y="28.296" fill="#FFFFFF" width="6.346" height="0.63"/>
			<rect x="248.297" y="28.977" fill="#FFFFFF" width="6.346" height="0.63"/>
		</g>
		<g>
			<rect x="255.045" y="13.714" fill="#FFFFFF" width="6.348" height="0.63"/>
			<rect x="255.045" y="14.395" fill="#FFFFFF" width="6.348" height="0.63"/>
		</g>
		<g>
			<rect x="255.045" y="18.198" fill="#FFFFFF" width="6.348" height="0.63"/>
			<rect x="255.045" y="18.878" fill="#FFFFFF" width="6.348" height="0.63"/>
		</g>
		<g>
			<rect x="255.045" y="22.686" fill="#FFFFFF" width="6.348" height="0.63"/>
			<rect x="255.045" y="23.367" fill="#FFFFFF" width="6.348" height="0.63"/>
		</g>
		<g>
			<rect x="255.045" y="27.174" fill="#FFFFFF" width="6.348" height="0.63"/>
			<rect x="255.045" y="27.854" fill="#FFFFFF" width="6.348" height="0.63"/>
		</g>
		<g>
			<rect x="261.816" y="15.958" fill="#FFFFFF" width="6.346" height="0.63"/>
			<rect x="261.816" y="16.639" fill="#FFFFFF" width="6.346" height="0.63"/>
		</g>
		<g>
			<rect x="261.816" y="24.93" fill="#FFFFFF" width="6.346" height="0.63"/>
			<rect x="261.816" y="25.611" fill="#FFFFFF" width="6.346" height="0.63"/>
		</g>
		<g>
			<rect x="264.988" y="20.437" fill="#FFFFFF" width="6.346" height="0.63"/>
			<rect x="264.988" y="21.118" fill="#FFFFFF" width="6.346" height="0.63"/>
		</g>
	</g>
	<g display="inline">
		<g>
			<rect x="292.477" y="28.977" fill="#FFFFFF" width="6.346" height="0.63"/>
			<rect x="292.477" y="28.296" fill="#FFFFFF" width="6.346" height="0.63"/>
		</g>
		<g>
			<rect x="292.477" y="26.733" fill="#FFFFFF" width="6.346" height="0.63"/>
			<rect x="292.477" y="26.052" fill="#FFFFFF" width="6.346" height="0.63"/>
		</g>
		<g>
			<rect x="292.477" y="24.489" fill="#FFFFFF" width="6.346" height="0.63"/>
			<rect x="292.477" y="23.808" fill="#FFFFFF" width="6.346" height="0.63"/>
		</g>
		<g>
			<rect x="292.477" y="22.245" fill="#FFFFFF" width="6.346" height="0.63"/>
			<rect x="292.477" y="21.564" fill="#FFFFFF" width="6.346" height="0.63"/>
		</g>
		<g>
			<rect x="292.477" y="20" fill="#FFFFFF" width="6.346" height="0.63"/>
			<rect x="292.477" y="19.32" fill="#FFFFFF" width="6.346" height="0.63"/>
		</g>
		<g>
			<rect x="292.477" y="17.756" fill="#FFFFFF" width="6.346" height="0.63"/>
			<rect x="292.477" y="17.076" fill="#FFFFFF" width="6.346" height="0.63"/>
		</g>
		<g>
			<rect x="292.477" y="15.512" fill="#FFFFFF" width="6.346" height="0.63"/>
			<rect x="292.477" y="14.832" fill="#FFFFFF" width="6.346" height="0.63"/>
		</g>
		<g>
			<rect x="292.477" y="13.268" fill="#FFFFFF" width="6.346" height="0.63"/>
			<rect x="292.477" y="12.587" fill="#FFFFFF" width="6.346" height="0.63"/>
		</g>
		<g>
			<rect x="285.727" y="27.85" fill="#FFFFFF" width="6.348" height="0.63"/>
			<rect x="285.727" y="27.169" fill="#FFFFFF" width="6.348" height="0.63"/>
		</g>
		<g>
			<rect x="285.727" y="23.367" fill="#FFFFFF" width="6.348" height="0.63"/>
			<rect x="285.727" y="22.686" fill="#FFFFFF" width="6.348" height="0.63"/>
		</g>
		<g>
			<rect x="285.727" y="18.878" fill="#FFFFFF" width="6.348" height="0.63"/>
			<rect x="285.727" y="18.198" fill="#FFFFFF" width="6.348" height="0.63"/>
		</g>
		<g>
			<rect x="285.727" y="14.39" fill="#FFFFFF" width="6.348" height="0.63"/>
			<rect x="285.727" y="13.709" fill="#FFFFFF" width="6.348" height="0.63"/>
		</g>
		<g>
			<rect x="278.957" y="25.606" fill="#FFFFFF" width="6.346" height="0.63"/>
			<rect x="278.957" y="24.926" fill="#FFFFFF" width="6.346" height="0.63"/>
		</g>
		<g>
			<rect x="278.957" y="16.634" fill="#FFFFFF" width="6.346" height="0.63"/>
			<rect x="278.957" y="15.954" fill="#FFFFFF" width="6.346" height="0.63"/>
		</g>
	</g>
	<g display="inline">
		<rect x="275.783" y="21.127" fill="#FFFFFF" width="6.348" height="0.63"/>
		<rect x="275.783" y="20.446" fill="#FFFFFF" width="6.348" height="0.63"/>
	</g>
	<g display="inline">
		<g>
			<rect x="248.363" y="35.011" fill="#D71920" width="6.348" height="0.63"/>
			<rect x="248.363" y="35.691" fill="#D71920" width="6.348" height="0.63"/>
		</g>
		<g>
			<rect x="248.363" y="37.255" fill="#D71920" width="6.348" height="0.63"/>
			<rect x="248.363" y="37.936" fill="#D71920" width="6.348" height="0.63"/>
		</g>
		<g>
			<rect x="248.363" y="39.499" fill="#D71920" width="6.348" height="0.63"/>
			<rect x="248.363" y="40.18" fill="#D71920" width="6.348" height="0.63"/>
		</g>
		<g>
			<rect x="248.363" y="41.743" fill="#D71920" width="6.348" height="0.63"/>
			<rect x="248.363" y="42.424" fill="#D71920" width="6.348" height="0.63"/>
		</g>
		<g>
			<rect x="248.363" y="43.987" fill="#D71920" width="6.348" height="0.63"/>
			<rect x="248.363" y="44.668" fill="#D71920" width="6.348" height="0.63"/>
		</g>
		<g>
			<rect x="248.363" y="46.231" fill="#D71920" width="6.348" height="0.63"/>
			<rect x="248.363" y="46.912" fill="#D71920" width="6.348" height="0.63"/>
		</g>
		<g>
			<rect x="248.363" y="48.476" fill="#D71920" width="6.348" height="0.63"/>
			<rect x="248.363" y="49.156" fill="#D71920" width="6.348" height="0.63"/>
		</g>
		<g>
			<rect x="248.363" y="50.72" fill="#D71920" width="6.348" height="0.63"/>
			<rect x="248.363" y="51.4" fill="#D71920" width="6.348" height="0.631"/>
		</g>
		<g>
			<rect x="255.113" y="36.138" fill="#D71920" width="6.346" height="0.63"/>
			<rect x="255.113" y="36.818" fill="#D71920" width="6.346" height="0.63"/>
		</g>
		<g>
			<rect x="255.113" y="40.621" fill="#D71920" width="6.346" height="0.63"/>
			<rect x="255.113" y="41.302" fill="#D71920" width="6.346" height="0.63"/>
		</g>
		<g>
			<rect x="255.113" y="45.11" fill="#D71920" width="6.346" height="0.629"/>
			<rect x="255.113" y="45.79" fill="#D71920" width="6.346" height="0.63"/>
		</g>
		<g>
			<rect x="255.113" y="49.598" fill="#D71920" width="6.346" height="0.63"/>
			<rect x="255.113" y="50.278" fill="#D71920" width="6.346" height="0.63"/>
		</g>
		<g>
			<rect x="261.883" y="38.382" fill="#D71920" width="6.346" height="0.63"/>
			<rect x="261.883" y="39.062" fill="#D71920" width="6.346" height="0.63"/>
		</g>
		<g>
			<rect x="261.883" y="47.354" fill="#D71920" width="6.346" height="0.63"/>
			<rect x="261.883" y="48.034" fill="#D71920" width="6.346" height="0.63"/>
		</g>
		<g>
			<rect x="265.057" y="42.86" fill="#D71920" width="6.346" height="0.63"/>
			<rect x="265.057" y="43.542" fill="#D71920" width="6.346" height="0.63"/>
		</g>
	</g>
	<g display="inline">
		<g>
			<rect x="292.545" y="51.4" fill="#FFFFFF" width="6.346" height="0.631"/>
			<rect x="292.545" y="50.72" fill="#FFFFFF" width="6.346" height="0.63"/>
		</g>
		<g>
			<rect x="292.545" y="49.156" fill="#FFFFFF" width="6.346" height="0.63"/>
			<rect x="292.545" y="48.476" fill="#FFFFFF" width="6.346" height="0.63"/>
		</g>
		<g>
			<rect x="292.545" y="46.912" fill="#FFFFFF" width="6.346" height="0.63"/>
			<rect x="292.545" y="46.232" fill="#FFFFFF" width="6.346" height="0.629"/>
		</g>
		<g>
			<rect x="292.545" y="44.668" fill="#FFFFFF" width="6.346" height="0.63"/>
			<rect x="292.545" y="43.988" fill="#FFFFFF" width="6.346" height="0.63"/>
		</g>
		<g>
			<rect x="292.545" y="42.424" fill="#FFFFFF" width="6.346" height="0.63"/>
			<rect x="292.545" y="41.743" fill="#FFFFFF" width="6.346" height="0.63"/>
		</g>
		<g>
			<rect x="292.545" y="40.18" fill="#FFFFFF" width="6.346" height="0.63"/>
			<rect x="292.545" y="39.499" fill="#FFFFFF" width="6.346" height="0.63"/>
		</g>
		<g>
			<rect x="292.545" y="37.936" fill="#FFFFFF" width="6.346" height="0.63"/>
			<rect x="292.545" y="37.255" fill="#FFFFFF" width="6.346" height="0.63"/>
		</g>
		<g>
			<rect x="292.545" y="35.692" fill="#FFFFFF" width="6.346" height="0.629"/>
			<rect x="292.545" y="35.011" fill="#FFFFFF" width="6.346" height="0.63"/>
		</g>
		<g>
			<rect x="285.795" y="50.273" fill="#FFFFFF" width="6.346" height="0.63"/>
			<rect x="285.795" y="49.593" fill="#FFFFFF" width="6.346" height="0.631"/>
		</g>
		<g>
			<rect x="285.795" y="45.79" fill="#FFFFFF" width="6.346" height="0.63"/>
			<rect x="285.795" y="45.11" fill="#FFFFFF" width="6.346" height="0.629"/>
		</g>
		<g>
			<rect x="285.795" y="41.302" fill="#FFFFFF" width="6.346" height="0.63"/>
			<rect x="285.795" y="40.621" fill="#FFFFFF" width="6.346" height="0.63"/>
		</g>
		<g>
			<rect x="285.795" y="36.813" fill="#FFFFFF" width="6.346" height="0.63"/>
			<rect x="285.795" y="36.133" fill="#FFFFFF" width="6.346" height="0.63"/>
		</g>
		<g>
			<rect x="279.025" y="48.029" fill="#FFFFFF" width="6.346" height="0.63"/>
			<rect x="279.025" y="47.349" fill="#FFFFFF" width="6.346" height="0.629"/>
		</g>
		<g>
			<rect x="279.025" y="39.058" fill="#FFFFFF" width="6.346" height="0.63"/>
			<rect x="279.025" y="38.377" fill="#FFFFFF" width="6.346" height="0.63"/>
		</g>
		<g>
			<rect x="275.852" y="43.55" fill="#FFFFFF" width="6.346" height="0.63"/>
			<rect x="275.852" y="42.87" fill="#FFFFFF" width="6.346" height="0.63"/>
		</g>
	</g>
	<g display="inline">
		<rect x="282.605" y="32.414" fill="#FFFFFF" width="6.346" height="0.63"/>
		<rect x="282.605" y="31.733" fill="#FFFFFF" width="6.346" height="0.63"/>
	</g>
	<g display="inline">
		<rect x="258.287" y="32.383" fill="#FFFFFF" width="6.346" height="0.63"/>
		<rect x="258.287" y="31.703" fill="#FFFFFF" width="6.346" height="0.63"/>
	</g>
	<g display="inline">
		<rect x="267.863" y="32.379" fill="#FFFFFF" width="11.373" height="1.129"/>
		<rect x="267.863" y="31.16" fill="#FFFFFF" width="11.373" height="1.129"/>
	</g>
</g>
<g id="Round" display="none">
	<text transform="matrix(1 0 0 1 14.7793 79.4893)" display="inline" font-family="'RobotoSlab-Regular'" font-size="8">2nd Rnd, Mar 20–21</text>
	<text transform="matrix(1 0 0 1 99.8633 104.061)" display="inline" font-family="'RobotoSlab-Regular'" font-size="8">3rd Rnd, Mar 22-23</text>
	<text transform="matrix(1 0 0 1 185.2119 154.3228)" display="inline" font-family="'RobotoSlab-Regular'" font-size="8">Reg. Semis, Mar 29-30</text>
	<text transform="matrix(1 0 0 1 225.2158 253.4946)" display="inline" font-family="'RobotoSlab-Regular'" font-size="8">Reg. Finals, Mar 29-30</text>
</g>
<g id="Team_Info" display="none">
	<g id="Team_Name">
		<g display="inline">
			<text transform="matrix(1 0 0 1 32.9453 145.8472)" font-family="'Roboto-Light'" font-size="8">Team</text>
			<text transform="matrix(1 0 0 1 32.9453 161.2236)" font-family="'Roboto-Light'" font-size="8">Team</text>
		</g>
		<g display="inline">
			<text transform="matrix(1 0 0 1 32.9453 95.3989)" font-family="'Roboto-Light'" font-size="8">Team</text>
			<text transform="matrix(1 0 0 1 32.9453 110.7754)" font-family="'Roboto-Light'" font-size="8">Team</text>
		</g>
		<g display="inline">
			<text transform="matrix(1 0 0 1 32.9453 195.229)" font-family="'Roboto-Light'" font-size="8">Team</text>
			<text transform="matrix(1 0 0 1 32.9453 210.6055)" font-family="'Roboto-Light'" font-size="8">Team</text>
		</g>
		<g display="inline">
			<text transform="matrix(1 0 0 1 32.9453 245.1235)" font-family="'Roboto-Light'" font-size="8">Team</text>
			<text transform="matrix(1 0 0 1 32.9453 260.5)" font-family="'Roboto-Light'" font-size="8">Team</text>
		</g>
		<g display="inline">
			<text transform="matrix(1 0 0 1 32.9453 295.3755)" font-family="'Roboto-Light'" font-size="8">Team</text>
			<text transform="matrix(1 0 0 1 32.9453 310.752)" font-family="'Roboto-Light'" font-size="8">Team</text>
		</g>
		<g display="inline">
			<text transform="matrix(1 0 0 1 32.9453 345.1284)" font-family="'Roboto-Light'" font-size="8">Team</text>
			<text transform="matrix(1 0 0 1 32.9453 360.5049)" font-family="'Roboto-Light'" font-size="8">Team</text>
		</g>
		<g display="inline">
			<text transform="matrix(1 0 0 1 32.9453 395.1069)" font-family="'Roboto-Light'" font-size="8">Team</text>
			<text transform="matrix(1 0 0 1 32.9453 410.4834)" font-family="'Roboto-Light'" font-size="8">Team</text>
		</g>
		<g display="inline">
			<text transform="matrix(1 0 0 1 32.9453 445.3989)" font-family="'Roboto-Light'" font-size="8">Team</text>
			<text transform="matrix(1 0 0 1 32.9453 460.7754)" font-family="'Roboto-Light'" font-size="8">Team</text>
		</g>
		<g display="inline">
			<text transform="matrix(1 0 0 1 117.4453 120.2764)" font-family="'Roboto-Light'" font-size="8">Team</text>
			<text transform="matrix(1 0 0 1 117.4453 135.6528)" font-family="'Roboto-Light'" font-size="8">Team</text>
		</g>
		<g display="inline">
			<text transform="matrix(1 0 0 1 117.4453 220.2153)" font-family="'Roboto-Light'" font-size="8">Team</text>
			<text transform="matrix(1 0 0 1 117.4453 235.5918)" font-family="'Roboto-Light'" font-size="8">Team</text>
		</g>
		<g display="inline">
			<text transform="matrix(1 0 0 1 117.4453 320.1514)" font-family="'Roboto-Light'" font-size="8">Team</text>
			<text transform="matrix(1 0 0 1 117.4453 335.5278)" font-family="'Roboto-Light'" font-size="8">Team</text>
		</g>
		<g display="inline">
			<text transform="matrix(1 0 0 1 117.4453 420.0903)" font-family="'Roboto-Light'" font-size="8">Team</text>
			<text transform="matrix(1 0 0 1 117.4453 435.4668)" font-family="'Roboto-Light'" font-size="8">Team</text>
		</g>
		<g display="inline">
			<text transform="matrix(1 0 0 1 202.4434 370.1211)" font-family="'Roboto-Light'" font-size="8">Team</text>
			<text transform="matrix(1 0 0 1 202.4434 385.4976)" font-family="'Roboto-Light'" font-size="8">Team</text>
		</g>
		<g display="inline">
			<text transform="matrix(1 0 0 1 202.4434 170.3804)" font-family="'Roboto-Light'" font-size="8">Team</text>
			<text transform="matrix(1 0 0 1 202.4434 185.7568)" font-family="'Roboto-Light'" font-size="8">Team</text>
		</g>
		<g display="inline">
			<text transform="matrix(1 0 0 1 242.9434 270.3774)" font-family="'Roboto-Light'" font-size="8">Team</text>
			<text transform="matrix(1 0 0 1 242.9434 285.7539)" font-family="'Roboto-Light'" font-size="8">Team</text>
		</g>
	</g>
	<g id="Score">
		<g display="inline">
			<text transform="matrix(-1 0 0 1 91.6719 145.8472)" font-family="'Roboto-Light'" font-size="8">XX</text>
			<text transform="matrix(-1 0 0 1 91.6719 161.2236)" font-family="'Roboto-Light'" font-size="8">XX</text>
		</g>
		<g display="inline">
			<text transform="matrix(-1 0 0 1 91.6719 95.3989)" font-family="'Roboto-Light'" font-size="8">XX</text>
			<text transform="matrix(-1 0 0 1 91.6719 110.7754)" font-family="'Roboto-Light'" font-size="8">XX</text>
		</g>
		<g display="inline">
			<text transform="matrix(-1 0 0 1 91.6719 195.229)" font-family="'Roboto-Light'" font-size="8">XX</text>
			<text transform="matrix(-1 0 0 1 91.6719 210.6055)" font-family="'Roboto-Light'" font-size="8">XX</text>
		</g>
		<g display="inline">
			<text transform="matrix(-1 0 0 1 91.6719 245.1235)" font-family="'Roboto-Light'" font-size="8">XX</text>
			<text transform="matrix(-1 0 0 1 91.6719 260.5)" font-family="'Roboto-Light'" font-size="8">XX</text>
		</g>
		<g display="inline">
			<text transform="matrix(-1 0 0 1 91.6719 295.3755)" font-family="'Roboto-Light'" font-size="8">XX</text>
			<text transform="matrix(-1 0 0 1 91.6719 310.752)" font-family="'Roboto-Light'" font-size="8">XX</text>
		</g>
		<g display="inline">
			<text transform="matrix(-1 0 0 1 91.6719 345.1284)" font-family="'Roboto-Light'" font-size="8">XX</text>
			<text transform="matrix(-1 0 0 1 91.6719 360.5049)" font-family="'Roboto-Light'" font-size="8">XX</text>
		</g>
		<g display="inline">
			<text transform="matrix(-1 0 0 1 91.6719 395.1069)" font-family="'Roboto-Light'" font-size="8">XX</text>
			<text transform="matrix(-1 0 0 1 91.6719 410.4834)" font-family="'Roboto-Light'" font-size="8">XX</text>
		</g>
		<g display="inline">
			<text transform="matrix(-1 0 0 1 91.6719 445.3989)" font-family="'Roboto-Light'" font-size="8">XX</text>
			<text transform="matrix(-1 0 0 1 91.6719 460.7754)" font-family="'Roboto-Light'" font-size="8">XX</text>
		</g>
		<g display="inline">
			<text transform="matrix(-1 0 0 1 176.1719 120.2764)" font-family="'Roboto-Light'" font-size="8">XX</text>
			<text transform="matrix(-1 0 0 1 176.1719 135.6528)" font-family="'Roboto-Light'" font-size="8">XX</text>
		</g>
		<g display="inline">
			<text transform="matrix(-1 0 0 1 176.1719 220.2153)" font-family="'Roboto-Light'" font-size="8">XX</text>
			<text transform="matrix(-1 0 0 1 176.1719 235.5918)" font-family="'Roboto-Light'" font-size="8">XX</text>
		</g>
		<g display="inline">
			<text transform="matrix(-1 0 0 1 176.1719 320.1514)" font-family="'Roboto-Light'" font-size="8">XX</text>
			<text transform="matrix(-1 0 0 1 176.1719 335.5278)" font-family="'Roboto-Light'" font-size="8">XX</text>
		</g>
		<g display="inline">
			<text transform="matrix(-1 0 0 1 176.1719 420.0903)" font-family="'Roboto-Light'" font-size="8">XX</text>
			<text transform="matrix(-1 0 0 1 176.1719 435.4668)" font-family="'Roboto-Light'" font-size="8">XX</text>
		</g>
		<g display="inline">
			<text transform="matrix(-1 0 0 1 261.1719 370.1211)" font-family="'Roboto-Light'" font-size="8">XX</text>
			<text transform="matrix(-1 0 0 1 261.1719 385.4976)" font-family="'Roboto-Light'" font-size="8">XX</text>
		</g>
		<g display="inline">
			<text transform="matrix(-1 0 0 1 261.1719 170.3804)" font-family="'Roboto-Light'" font-size="8">XX</text>
			<text transform="matrix(-1 0 0 1 261.1719 185.7568)" font-family="'Roboto-Light'" font-size="8">XX</text>
		</g>
		<g display="inline">
			<text transform="matrix(-1 0 0 1 301.6719 270.3774)" font-family="'Roboto-Light'" font-size="8">XX</text>
			<text transform="matrix(-1 0 0 1 301.6719 285.7539)" font-family="'Roboto-Light'" font-size="8">XX</text>
		</g>
	</g>
	<g id="Seed">
		<g display="inline">
			<text transform="matrix(1 0 0 1 22.1484 145.8472)" font-family="'Roboto-Light'" font-size="8">8</text>
			<text transform="matrix(1 0 0 1 22.1484 161.2236)" font-family="'Roboto-Light'" font-size="8">9</text>
		</g>
		<g display="inline">
			<text transform="matrix(1 0 0 1 22.1484 95.3989)" font-family="'Roboto-Light'" font-size="8">1</text>
			<text transform="matrix(1 0 0 1 17.7148 110.7754)" font-family="'Roboto-Light'" font-size="8">16</text>
		</g>
		<g display="inline">
			<text transform="matrix(1 0 0 1 22.1484 195.229)" font-family="'Roboto-Light'" font-size="8">5</text>
			<text transform="matrix(1 0 0 1 17.7148 210.6055)" font-family="'Roboto-Light'" font-size="8">12</text>
		</g>
		<g display="inline">
			<text transform="matrix(1 0 0 1 22.1484 245.1235)" font-family="'Roboto-Light'" font-size="8">4</text>
			<text transform="matrix(1 0 0 1 17.7148 260.5)" font-family="'Roboto-Light'" font-size="8">13</text>
		</g>
		<g display="inline">
			<text transform="matrix(1 0 0 1 22.1484 295.3755)" font-family="'Roboto-Light'" font-size="8">6</text>
			<text transform="matrix(1 0 0 1 17.7148 310.752)" font-family="'Roboto-Light'" font-size="8">11</text>
		</g>
		<g display="inline">
			<text transform="matrix(1 0 0 1 22.1484 345.1284)" font-family="'Roboto-Light'" font-size="8">3</text>
			<text transform="matrix(1 0 0 1 17.7148 360.5049)" font-family="'Roboto-Light'" font-size="8">14</text>
		</g>
		<g display="inline">
			<text transform="matrix(1 0 0 1 22.3789 395.1069)" font-family="'Roboto-Light'" font-size="8">7</text>
			<text transform="matrix(1 0 0 1 17.7148 410.4834)" font-family="'Roboto-Light'" font-size="8">10</text>
		</g>
		<g display="inline">
			<text transform="matrix(1 0 0 1 22.1484 445.3989)" font-family="'Roboto-Light'" font-size="8">2</text>
			<text transform="matrix(1 0 0 1 17.7148 460.7754)" font-family="'Roboto-Light'" font-size="8">15</text>
		</g>
		<g display="inline">
			<text transform="matrix(1 0 0 1 107.1445 120.2764)" font-family="'Roboto-Light'" font-size="8">X</text>
			<text transform="matrix(1 0 0 1 107.1445 135.6528)" font-family="'Roboto-Light'" font-size="8">X</text>
		</g>
		<g display="inline">
			<text transform="matrix(1 0 0 1 107.1445 220.2153)" font-family="'Roboto-Light'" font-size="8">X</text>
			<text transform="matrix(1 0 0 1 107.1445 235.5918)" font-family="'Roboto-Light'" font-size="8">X</text>
		</g>
		<g display="inline">
			<text transform="matrix(1 0 0 1 107.1445 320.1514)" font-family="'Roboto-Light'" font-size="8">X</text>
			<text transform="matrix(1 0 0 1 107.1445 335.5278)" font-family="'Roboto-Light'" font-size="8">X</text>
		</g>
		<g display="inline">
			<text transform="matrix(1 0 0 1 107.1445 420.0903)" font-family="'Roboto-Light'" font-size="8">X</text>
			<text transform="matrix(1 0 0 1 107.1445 435.4668)" font-family="'Roboto-Light'" font-size="8">X</text>
		</g>
		<g display="inline">
			<text transform="matrix(1 0 0 1 192.1445 370.1211)" font-family="'Roboto-Light'" font-size="8">X</text>
			<text transform="matrix(1 0 0 1 192.1445 385.4976)" font-family="'Roboto-Light'" font-size="8">X</text>
		</g>
		<g display="inline">
			<text transform="matrix(1 0 0 1 192.1445 170.3804)" font-family="'Roboto-Light'" font-size="8">X</text>
			<text transform="matrix(1 0 0 1 192.1445 185.7568)" font-family="'Roboto-Light'" font-size="8">X</text>
		</g>
		<g display="inline">
			<text transform="matrix(1 0 0 1 232.6445 270.3774)" font-family="'Roboto-Light'" font-size="8">X</text>
			<text transform="matrix(1 0 0 1 232.6445 285.7539)" font-family="'Roboto-Light'" font-size="8">X</text>
		</g>
	</g>
</g>
<g id="PopOut" display="none">
</g>
<g id="Hover_x2F_Click" display="none">
</g>
<g id="DesktopWeb" display="none">
	<g id="FIrst_Round">
	</g>
	<g id="Second_Round">
	</g>
	<g id="Regional_Semis">
	</g>
	<g id="Regional_FInals">
	</g>
	<g id="National_Semis">
	</g>
	<g id="National_Champ" display="inline">
	</g>
</g>
</svg>
