<?xml version="1.0" encoding="utf-8"?>
<!-- Generator: Adobe Illustrator 16.0.0, SVG Export Plug-In . SVG Version: 6.00 Build 0)  -->
<!DOCTYPE svg PUBLIC "-//W3C//DTD SVG 1.1//EN" "http://www.w3.org/Graphics/SVG/1.1/DTD/svg11.dtd">
<svg version="1.1" xmlns="http://www.w3.org/2000/svg" xmlns:xlink="http://www.w3.org/1999/xlink" x="0px" y="0px" width="320px"
	 height="480px" viewBox="0 0 320 480" enable-background="new 0 0 320 480" xml:space="preserve">
<g id="Layer_9" display="none">
</g>
<g id="Bracket" display="none">
	<g display="inline">
		<g>
			<rect x="54.781" y="158.946" fill="#E6E7E8" width="80.004" height="33.416"/>
		</g>
		<rect x="54.781" y="158.338" fill="#BCBEC0" width="80.004" height="1.215"/>
	</g>
	<g display="inline">
		<g>
			<rect x="140.131" y="208.78" fill="#E6E7E8" width="80.004" height="33.416"/>
		</g>
		<rect x="140.131" y="208.172" fill="#BCBEC0" width="80.004" height="1.215"/>
	</g>
	<g display="inline">
		<g>
			<rect x="14.78" y="258.118" fill="#E6E7E8" width="80.004" height="33.416"/>
		</g>
		<rect x="14.78" y="257.511" fill="#BCBEC0" width="80.004" height="1.215"/>
	</g>
	<g display="inline">
		<g>
			<rect x="140.131" y="308.778" fill="#E6E7E8" width="80.004" height="33.416"/>
		</g>
		<rect x="140.131" y="308.171" fill="#BCBEC0" width="80.004" height="1.215"/>
	</g>
	<g display="inline">
		<g>
			<rect x="54.783" y="358.737" fill="#E6E7E8" width="80.004" height="33.416"/>
		</g>
		<rect x="54.783" y="358.13" fill="#BCBEC0" width="80.004" height="1.215"/>
	</g>
	<g display="inline">
		<g>
			<rect x="140.131" y="408.571" fill="#E6E7E8" width="80.004" height="33.416"/>
		</g>
		<rect x="140.131" y="407.964" fill="#BCBEC0" width="80.004" height="1.215"/>
	</g>
	<g display="inline">
		<g>
			<rect x="225.215" y="433.271" fill="#E6E7E8" width="80.004" height="33.416"/>
		</g>
		<rect x="225.215" y="432.664" fill="#BCBEC0" width="80.004" height="1.215"/>
	</g>
	<g display="inline">
		<g>
			<rect x="225.215" y="383.142" fill="#E6E7E8" width="80.004" height="33.416"/>
		</g>
		<rect x="225.215" y="382.534" fill="#BCBEC0" width="80.004" height="1.215"/>
	</g>
	<g display="inline">
		<g>
			<rect x="225.215" y="333.778" fill="#E6E7E8" width="80.004" height="33.416"/>
		</g>
		<rect x="225.215" y="333.171" fill="#BCBEC0" width="80.004" height="1.215"/>
	</g>
	<g display="inline">
		<g>
			<rect x="225.215" y="283.684" fill="#E6E7E8" width="80.004" height="33.416"/>
		</g>
		<rect x="225.215" y="283.076" fill="#BCBEC0" width="80.004" height="1.215"/>
	</g>
	<g display="inline">
		<g>
			<rect x="225.215" y="233.397" fill="#E6E7E8" width="80.004" height="33.416"/>
		</g>
		<rect x="225.215" y="232.79" fill="#BCBEC0" width="80.004" height="1.215"/>
	</g>
	<g display="inline">
		<g>
			<rect x="225.215" y="183.667" fill="#E6E7E8" width="80.004" height="33.417"/>
		</g>
		<rect x="225.215" y="183.06" fill="#BCBEC0" width="80.004" height="1.215"/>
	</g>
	<g display="inline">
		<g>
			<rect x="225.215" y="133.6" fill="#E6E7E8" width="80.004" height="33.417"/>
		</g>
		<rect x="225.215" y="132.992" fill="#BCBEC0" width="80.004" height="1.215"/>
	</g>
	<g display="inline">
		<g>
			<rect x="225.215" y="84.112" fill="#E6E7E8" width="80.004" height="33.417"/>
		</g>
		<rect x="225.215" y="83.504" fill="#BCBEC0" width="80.004" height="1.215"/>
	</g>
	<g display="inline">
		<g>
			<rect x="140.131" y="108.684" fill="#E6E7E8" width="80.004" height="33.417"/>
		</g>
		<rect x="140.131" y="108.076" fill="#BCBEC0" width="80.004" height="1.215"/>
	</g>
</g>
<g id="Lines">
	<g>
		<polyline fill="none" stroke="#E6E7E8" stroke-width="0.5" stroke-miterlimit="10" points="51.778,175.35 23.227,175.35 
			23.227,243.807 23.227,294.537 23.227,375.142 51.78,375.142 		"/>
		<g>
			<polyline fill="none" stroke="#E6E7E8" stroke-width="0.5" stroke-miterlimit="10" points="137.128,125.392 108.574,125.392 
				108.574,145.2 108.574,195.365 108.574,225.184 137.128,225.184 			"/>
		</g>
		<g>
			<polyline fill="none" stroke="#E6E7E8" stroke-width="0.5" stroke-miterlimit="10" points="137.128,325.183 108.574,325.183 
				108.574,355.127 108.574,395.156 108.574,424.976 137.128,424.976 			"/>
		</g>
	</g>
</g>
<g id="Nav" display="none">
	<rect display="inline" fill="#F1F2F2" width="320" height="33.992"/>
	
		<line display="inline" fill="none" stroke="#BCBEC0" stroke-width="0.5" stroke-miterlimit="10" x1="0" y1="33.992" x2="320" y2="33.992"/>
	<text transform="matrix(1 0 0 1 14.7803 21.7021)" display="inline" font-family="'RobotoSlab-Bold'" font-size="12">MIDWEST</text>
	<g display="inline">
		<g>
			<path fill="#BCBEC0" d="M22.658,455.039c-0.814,0-0.848,0.034-0.848,0.544v2.395c0,1.782,0.084,2.021,1.035,2.123l0.492,0.051
				c0.102,0.066,0.066,0.374-0.035,0.424c-0.916-0.033-1.492-0.05-2.156-0.05c-0.729,0-1.307,0.032-1.969,0.05
				c-0.102-0.05-0.137-0.322-0.035-0.424l0.291-0.051c0.949-0.17,0.984-0.341,0.984-2.123v-6.113c0-1.783-0.119-2.072-1.002-2.14
				l-0.443-0.034c-0.102-0.068-0.068-0.373,0.033-0.424c0.834,0.018,1.412,0.051,2.141,0.051c0.664,0,1.24-0.018,1.971-0.051
				c0.102,0.051,0.135,0.355,0.035,0.424l-0.324,0.034c-0.984,0.103-1.018,0.356-1.018,2.14v1.953c0,0.526,0.033,0.543,0.848,0.543
				h4.855c0.816,0,0.85-0.017,0.85-0.543v-1.953c0-1.783-0.033-2.037-1.035-2.14l-0.324-0.034c-0.1-0.068-0.068-0.373,0.035-0.424
				c0.783,0.033,1.359,0.051,2.055,0.051c0.662,0,1.24-0.018,2.004-0.051c0.102,0.051,0.135,0.355,0.033,0.424l-0.355,0.034
				c-0.986,0.103-1.02,0.356-1.02,2.14v6.113c0,1.782,0.033,2.004,1.02,2.123l0.408,0.051c0.1,0.066,0.066,0.374-0.035,0.424
				c-0.814-0.033-1.393-0.05-2.055-0.05c-0.695,0-1.307,0.017-2.055,0.05c-0.104-0.05-0.135-0.322-0.035-0.424l0.324-0.051
				c1.035-0.17,1.035-0.341,1.035-2.123v-2.395c0-0.51-0.033-0.544-0.85-0.544H22.658z"/>
		</g>
		<path fill="#BCBEC0" d="M32.877,465.221H17.279c-1.379,0-2.5-1.122-2.5-2.501v-15.598c0-1.379,1.121-2.501,2.5-2.501h15.598
			c1.379,0,2.5,1.122,2.5,2.501v15.598C35.377,464.099,34.256,465.221,32.877,465.221z M17.279,445.938
			c-0.652,0-1.184,0.531-1.184,1.184v15.598c0,0.652,0.531,1.184,1.184,1.184h15.598c0.652,0,1.184-0.531,1.184-1.184v-15.598
			c0-0.652-0.531-1.184-1.184-1.184H17.279z"/>
	</g>
	<g display="inline">
		<path fill="#3B5999" d="M204.498,6.684H188.9c-1.379,0-2.502,1.122-2.502,2.501v15.597c0,1.379,1.123,2.501,2.502,2.501h15.598
			c1.379,0,2.5-1.122,2.5-2.501V9.186C206.998,7.806,205.877,6.684,204.498,6.684z M203.371,18.138h-2.832v7.579h-2.885v-7.579
			h-2.004v-2.73h2.004v-2.33c0-1.832,1.182-3.514,3.91-3.514c1.105,0,1.922,0.106,1.922,0.106l-0.064,2.548
			c0,0-0.832-0.008-1.74-0.008c-0.984,0-1.143,0.455-1.143,1.208v1.99h2.963L203.371,18.138z"/>
		<path fill="#5FA9DD" d="M231.57,6.684h-15.6c-1.377,0-2.5,1.122-2.5,2.501v15.597c0,1.379,1.123,2.501,2.5,2.501h15.6
			c1.377,0,2.5-1.122,2.5-2.501V9.186C234.07,7.806,232.947,6.684,231.57,6.684z M229.281,14.156c0.006,0.122,0.01,0.246,0.01,0.367
			c0,3.76-2.861,8.094-8.092,8.094c-1.607,0-3.104-0.471-4.359-1.279c0.223,0.027,0.449,0.042,0.678,0.042
			c1.332,0,2.559-0.455,3.531-1.218c-1.244-0.024-2.295-0.845-2.654-1.976c0.172,0.034,0.352,0.052,0.533,0.052
			c0.258,0,0.512-0.034,0.748-0.099c-1.301-0.262-2.279-1.412-2.279-2.79c0-0.012,0-0.023,0-0.034
			c0.383,0.211,0.82,0.339,1.287,0.354c-0.764-0.51-1.264-1.378-1.264-2.366c0-0.521,0.139-1.01,0.383-1.431
			c1.404,1.722,3.498,2.854,5.863,2.972c-0.049-0.208-0.074-0.425-0.074-0.648c0-1.571,1.273-2.844,2.846-2.844
			c0.816,0,1.557,0.347,2.074,0.898c0.646-0.128,1.256-0.365,1.807-0.691c-0.213,0.664-0.664,1.222-1.25,1.575
			c0.576-0.07,1.121-0.223,1.633-0.45C230.318,13.255,229.838,13.754,229.281,14.156z"/>
	</g>
	
		<rect x="241.969" y="6.696" display="inline" fill="#FFFFFF" stroke="#BCBEC0" stroke-width="0.5" stroke-miterlimit="10" width="63.25" height="51.25"/>
	<rect x="244.65" y="9.233" display="inline" fill="#C7C8CA" width="57.887" height="46.176"/>
	<g display="inline">
		<g>
			<rect x="248.297" y="12.6" fill="#FFFFFF" width="6.346" height="0.63"/>
			<rect x="248.297" y="13.28" fill="#FFFFFF" width="6.346" height="0.63"/>
		</g>
		<g>
			<rect x="248.297" y="14.844" fill="#FFFFFF" width="6.346" height="0.63"/>
			<rect x="248.297" y="15.524" fill="#FFFFFF" width="6.346" height="0.63"/>
		</g>
		<g>
			<rect x="248.297" y="17.088" fill="#FFFFFF" width="6.346" height="0.63"/>
			<rect x="248.297" y="17.768" fill="#FFFFFF" width="6.346" height="0.63"/>
		</g>
		<g>
			<rect x="248.297" y="19.332" fill="#FFFFFF" width="6.346" height="0.63"/>
			<rect x="248.297" y="20.013" fill="#FFFFFF" width="6.346" height="0.63"/>
		</g>
		<g>
			<rect x="248.297" y="21.576" fill="#FFFFFF" width="6.346" height="0.63"/>
			<rect x="248.297" y="22.257" fill="#FFFFFF" width="6.346" height="0.63"/>
		</g>
		<g>
			<rect x="248.297" y="23.82" fill="#FFFFFF" width="6.346" height="0.63"/>
			<rect x="248.297" y="24.501" fill="#FFFFFF" width="6.346" height="0.63"/>
		</g>
		<g>
			<rect x="248.297" y="26.064" fill="#FFFFFF" width="6.346" height="0.63"/>
			<rect x="248.297" y="26.745" fill="#FFFFFF" width="6.346" height="0.63"/>
		</g>
		<g>
			<rect x="248.297" y="28.309" fill="#FFFFFF" width="6.346" height="0.63"/>
			<rect x="248.297" y="28.989" fill="#FFFFFF" width="6.346" height="0.63"/>
		</g>
		<g>
			<rect x="255.045" y="13.727" fill="#FFFFFF" width="6.348" height="0.63"/>
			<rect x="255.045" y="14.407" fill="#FFFFFF" width="6.348" height="0.63"/>
		</g>
		<g>
			<rect x="255.045" y="18.21" fill="#FFFFFF" width="6.348" height="0.63"/>
			<rect x="255.045" y="18.891" fill="#FFFFFF" width="6.348" height="0.63"/>
		</g>
		<g>
			<rect x="255.045" y="22.698" fill="#FFFFFF" width="6.348" height="0.63"/>
			<rect x="255.045" y="23.379" fill="#FFFFFF" width="6.348" height="0.63"/>
		</g>
		<g>
			<rect x="255.045" y="27.187" fill="#FFFFFF" width="6.348" height="0.63"/>
			<rect x="255.045" y="27.867" fill="#FFFFFF" width="6.348" height="0.63"/>
		</g>
		<g>
			<rect x="261.816" y="15.971" fill="#FFFFFF" width="6.346" height="0.63"/>
			<rect x="261.816" y="16.651" fill="#FFFFFF" width="6.346" height="0.63"/>
		</g>
		<g>
			<rect x="261.816" y="24.942" fill="#FFFFFF" width="6.346" height="0.63"/>
			<rect x="261.816" y="25.623" fill="#FFFFFF" width="6.346" height="0.63"/>
		</g>
		<g>
			<rect x="264.988" y="20.449" fill="#FFFFFF" width="6.346" height="0.63"/>
			<rect x="264.988" y="21.13" fill="#FFFFFF" width="6.346" height="0.63"/>
		</g>
	</g>
	<g display="inline">
		<g>
			<rect x="292.477" y="28.989" fill="#FFFFFF" width="6.346" height="0.63"/>
			<rect x="292.477" y="28.309" fill="#FFFFFF" width="6.346" height="0.63"/>
		</g>
		<g>
			<rect x="292.477" y="26.745" fill="#FFFFFF" width="6.346" height="0.63"/>
			<rect x="292.477" y="26.064" fill="#FFFFFF" width="6.346" height="0.63"/>
		</g>
		<g>
			<rect x="292.477" y="24.501" fill="#FFFFFF" width="6.346" height="0.63"/>
			<rect x="292.477" y="23.82" fill="#FFFFFF" width="6.346" height="0.63"/>
		</g>
		<g>
			<rect x="292.477" y="22.257" fill="#FFFFFF" width="6.346" height="0.63"/>
			<rect x="292.477" y="21.576" fill="#FFFFFF" width="6.346" height="0.63"/>
		</g>
		<g>
			<rect x="292.477" y="20.013" fill="#FFFFFF" width="6.346" height="0.63"/>
			<rect x="292.477" y="19.332" fill="#FFFFFF" width="6.346" height="0.63"/>
		</g>
		<g>
			<rect x="292.477" y="17.768" fill="#FFFFFF" width="6.346" height="0.63"/>
			<rect x="292.477" y="17.088" fill="#FFFFFF" width="6.346" height="0.63"/>
		</g>
		<g>
			<rect x="292.477" y="15.524" fill="#FFFFFF" width="6.346" height="0.63"/>
			<rect x="292.477" y="14.844" fill="#FFFFFF" width="6.346" height="0.63"/>
		</g>
		<g>
			<rect x="292.477" y="13.28" fill="#FFFFFF" width="6.346" height="0.63"/>
			<rect x="292.477" y="12.6" fill="#FFFFFF" width="6.346" height="0.63"/>
		</g>
		<g>
			<rect x="285.727" y="27.862" fill="#FFFFFF" width="6.348" height="0.63"/>
			<rect x="285.727" y="27.182" fill="#FFFFFF" width="6.348" height="0.63"/>
		</g>
		<g>
			<rect x="285.727" y="23.379" fill="#FFFFFF" width="6.348" height="0.63"/>
			<rect x="285.727" y="22.698" fill="#FFFFFF" width="6.348" height="0.63"/>
		</g>
		<g>
			<rect x="285.727" y="18.891" fill="#FFFFFF" width="6.348" height="0.63"/>
			<rect x="285.727" y="18.21" fill="#FFFFFF" width="6.348" height="0.63"/>
		</g>
		<g>
			<rect x="285.727" y="14.402" fill="#FFFFFF" width="6.348" height="0.63"/>
			<rect x="285.727" y="13.722" fill="#FFFFFF" width="6.348" height="0.63"/>
		</g>
		<g>
			<rect x="278.957" y="25.618" fill="#FFFFFF" width="6.346" height="0.63"/>
			<rect x="278.957" y="24.938" fill="#FFFFFF" width="6.346" height="0.63"/>
		</g>
		<g>
			<rect x="278.957" y="16.646" fill="#FFFFFF" width="6.346" height="0.63"/>
			<rect x="278.957" y="15.966" fill="#FFFFFF" width="6.346" height="0.63"/>
		</g>
	</g>
	<g display="inline">
		<rect x="275.783" y="21.139" fill="#FFFFFF" width="6.348" height="0.63"/>
		<rect x="275.783" y="20.458" fill="#FFFFFF" width="6.348" height="0.63"/>
	</g>
	<g display="inline">
		<g>
			<rect x="248.363" y="35.023" fill="#FFFFFF" width="6.348" height="0.63"/>
			<rect x="248.363" y="35.703" fill="#FFFFFF" width="6.348" height="0.63"/>
		</g>
		<g>
			<rect x="248.363" y="37.267" fill="#FFFFFF" width="6.348" height="0.63"/>
			<rect x="248.363" y="37.948" fill="#FFFFFF" width="6.348" height="0.63"/>
		</g>
		<g>
			<rect x="248.363" y="39.511" fill="#FFFFFF" width="6.348" height="0.63"/>
			<rect x="248.363" y="40.192" fill="#FFFFFF" width="6.348" height="0.63"/>
		</g>
		<g>
			<rect x="248.363" y="41.755" fill="#FFFFFF" width="6.348" height="0.63"/>
			<rect x="248.363" y="42.436" fill="#FFFFFF" width="6.348" height="0.63"/>
		</g>
		<g>
			<rect x="248.363" y="43.999" fill="#FFFFFF" width="6.348" height="0.63"/>
			<rect x="248.363" y="44.68" fill="#FFFFFF" width="6.348" height="0.63"/>
		</g>
		<g>
			<rect x="248.363" y="46.243" fill="#FFFFFF" width="6.348" height="0.63"/>
			<rect x="248.363" y="46.924" fill="#FFFFFF" width="6.348" height="0.63"/>
		</g>
		<g>
			<rect x="248.363" y="48.488" fill="#FFFFFF" width="6.348" height="0.63"/>
			<rect x="248.363" y="49.168" fill="#FFFFFF" width="6.348" height="0.63"/>
		</g>
		<g>
			<rect x="248.363" y="50.732" fill="#FFFFFF" width="6.348" height="0.63"/>
			<rect x="248.363" y="51.412" fill="#FFFFFF" width="6.348" height="0.631"/>
		</g>
		<g>
			<rect x="255.113" y="36.15" fill="#FFFFFF" width="6.346" height="0.63"/>
			<rect x="255.113" y="36.83" fill="#FFFFFF" width="6.346" height="0.63"/>
		</g>
		<g>
			<rect x="255.113" y="40.633" fill="#FFFFFF" width="6.346" height="0.63"/>
			<rect x="255.113" y="41.314" fill="#FFFFFF" width="6.346" height="0.63"/>
		</g>
		<g>
			<rect x="255.113" y="45.122" fill="#FFFFFF" width="6.346" height="0.629"/>
			<rect x="255.113" y="45.802" fill="#FFFFFF" width="6.346" height="0.63"/>
		</g>
		<g>
			<rect x="255.113" y="49.61" fill="#FFFFFF" width="6.346" height="0.63"/>
			<rect x="255.113" y="50.291" fill="#FFFFFF" width="6.346" height="0.63"/>
		</g>
		<g>
			<rect x="261.883" y="38.394" fill="#FFFFFF" width="6.346" height="0.63"/>
			<rect x="261.883" y="39.075" fill="#FFFFFF" width="6.346" height="0.63"/>
		</g>
		<g>
			<rect x="261.883" y="47.366" fill="#FFFFFF" width="6.346" height="0.63"/>
			<rect x="261.883" y="48.046" fill="#FFFFFF" width="6.346" height="0.63"/>
		</g>
		<g>
			<rect x="265.057" y="42.873" fill="#FFFFFF" width="6.346" height="0.63"/>
			<rect x="265.057" y="43.554" fill="#FFFFFF" width="6.346" height="0.63"/>
		</g>
	</g>
	<g display="inline">
		<g>
			<rect x="292.545" y="51.412" fill="#D71920" width="6.346" height="0.631"/>
			<rect x="292.545" y="50.732" fill="#D71920" width="6.346" height="0.63"/>
		</g>
		<g>
			<rect x="292.545" y="49.168" fill="#D71920" width="6.346" height="0.63"/>
			<rect x="292.545" y="48.488" fill="#D71920" width="6.346" height="0.63"/>
		</g>
		<g>
			<rect x="292.545" y="46.924" fill="#D71920" width="6.346" height="0.63"/>
			<rect x="292.545" y="46.244" fill="#D71920" width="6.346" height="0.629"/>
		</g>
		<g>
			<rect x="292.545" y="44.68" fill="#D71920" width="6.346" height="0.63"/>
			<rect x="292.545" y="44" fill="#D71920" width="6.346" height="0.63"/>
		</g>
		<g>
			<rect x="292.545" y="42.436" fill="#D71920" width="6.346" height="0.63"/>
			<rect x="292.545" y="41.755" fill="#D71920" width="6.346" height="0.63"/>
		</g>
		<g>
			<rect x="292.545" y="40.192" fill="#D71920" width="6.346" height="0.63"/>
			<rect x="292.545" y="39.511" fill="#D71920" width="6.346" height="0.63"/>
		</g>
		<g>
			<rect x="292.545" y="37.948" fill="#D71920" width="6.346" height="0.63"/>
			<rect x="292.545" y="37.267" fill="#D71920" width="6.346" height="0.63"/>
		</g>
		<g>
			<rect x="292.545" y="35.704" fill="#D71920" width="6.346" height="0.629"/>
			<rect x="292.545" y="35.023" fill="#D71920" width="6.346" height="0.63"/>
		</g>
		<g>
			<rect x="285.795" y="50.286" fill="#D71920" width="6.346" height="0.63"/>
			<rect x="285.795" y="49.605" fill="#D71920" width="6.346" height="0.631"/>
		</g>
		<g>
			<rect x="285.795" y="45.802" fill="#D71920" width="6.346" height="0.63"/>
			<rect x="285.795" y="45.122" fill="#D71920" width="6.346" height="0.629"/>
		</g>
		<g>
			<rect x="285.795" y="41.314" fill="#D71920" width="6.346" height="0.63"/>
			<rect x="285.795" y="40.633" fill="#D71920" width="6.346" height="0.63"/>
		</g>
		<g>
			<rect x="285.795" y="36.825" fill="#D71920" width="6.346" height="0.63"/>
			<rect x="285.795" y="36.145" fill="#D71920" width="6.346" height="0.63"/>
		</g>
		<g>
			<rect x="279.025" y="48.042" fill="#D71920" width="6.346" height="0.63"/>
			<rect x="279.025" y="47.361" fill="#D71920" width="6.346" height="0.629"/>
		</g>
		<g>
			<rect x="279.025" y="39.07" fill="#D71920" width="6.346" height="0.63"/>
			<rect x="279.025" y="38.389" fill="#D71920" width="6.346" height="0.63"/>
		</g>
		<g>
			<rect x="275.852" y="43.562" fill="#D71920" width="6.346" height="0.63"/>
			<rect x="275.852" y="42.882" fill="#D71920" width="6.346" height="0.63"/>
		</g>
	</g>
	<g display="inline">
		<rect x="282.605" y="32.426" fill="#FFFFFF" width="6.346" height="0.63"/>
		<rect x="282.605" y="31.745" fill="#FFFFFF" width="6.346" height="0.63"/>
	</g>
	<g display="inline">
		<rect x="258.287" y="32.396" fill="#FFFFFF" width="6.346" height="0.63"/>
		<rect x="258.287" y="31.715" fill="#FFFFFF" width="6.346" height="0.63"/>
	</g>
	<g display="inline">
		<rect x="267.863" y="32.392" fill="#FFFFFF" width="11.373" height="1.129"/>
		<rect x="267.863" y="31.172" fill="#FFFFFF" width="11.373" height="1.129"/>
	</g>
</g>
<g id="Round" display="none">
	<text transform="matrix(1 0 0 1 230.7031 79.5015)" display="inline" font-family="'RobotoSlab-Regular'" font-size="8">2nd Rnd, Mar 20–21</text>
	<text transform="matrix(1 0 0 1 149.0679 104.0732)" display="inline" font-family="'RobotoSlab-Regular'" font-size="8">3rd Rnd, Mar 22-23</text>
	<text transform="matrix(1 0 0 1 51.5605 154.335)" display="inline" font-family="'RobotoSlab-Regular'" font-size="8">Reg. Semis, Mar 29-30</text>
	<text transform="matrix(1 0 0 1 11.2402 253.5068)" display="inline" font-family="'RobotoSlab-Regular'" font-size="8">Reg. Finals, Mar 29-30</text>
</g>
<g id="Team_Info" display="none">
	<g id="Team_Name">
		<g display="inline">
			<text transform="matrix(1 0 0 1 268.6533 145.8594)" font-family="'Roboto-Light'" font-size="8">Team</text>
			<text transform="matrix(1 0 0 1 268.6533 161.2358)" font-family="'Roboto-Light'" font-size="8">Team</text>
		</g>
		<g display="inline">
			<text transform="matrix(1 0 0 1 268.6533 95.4111)" font-family="'Roboto-Light'" font-size="8">Team</text>
			<text transform="matrix(1 0 0 1 268.6533 110.7876)" font-family="'Roboto-Light'" font-size="8">Team</text>
		</g>
		<g display="inline">
			<text transform="matrix(1 0 0 1 268.6533 195.2412)" font-family="'Roboto-Light'" font-size="8">Team</text>
			<text transform="matrix(1 0 0 1 268.6533 210.6177)" font-family="'Roboto-Light'" font-size="8">Team</text>
		</g>
		<g display="inline">
			<text transform="matrix(1 0 0 1 268.6533 245.1357)" font-family="'Roboto-Light'" font-size="8">Team</text>
			<text transform="matrix(1 0 0 1 268.6533 260.5117)" font-family="'Roboto-Light'" font-size="8">Team</text>
		</g>
		<g display="inline">
			<text transform="matrix(1 0 0 1 268.6533 295.3877)" font-family="'Roboto-Light'" font-size="8">Team</text>
			<text transform="matrix(1 0 0 1 268.6533 310.7637)" font-family="'Roboto-Light'" font-size="8">Team</text>
		</g>
		<g display="inline">
			<text transform="matrix(1 0 0 1 268.6533 345.1406)" font-family="'Roboto-Light'" font-size="8">Team</text>
			<text transform="matrix(1 0 0 1 268.6533 360.5176)" font-family="'Roboto-Light'" font-size="8">Team</text>
		</g>
		<g display="inline">
			<text transform="matrix(1 0 0 1 268.6533 395.1191)" font-family="'Roboto-Light'" font-size="8">Team</text>
			<text transform="matrix(1 0 0 1 268.6533 410.4961)" font-family="'Roboto-Light'" font-size="8">Team</text>
		</g>
		<g display="inline">
			<text transform="matrix(1 0 0 1 268.6533 445.4111)" font-family="'Roboto-Light'" font-size="8">Team</text>
			<text transform="matrix(1 0 0 1 268.6533 460.7871)" font-family="'Roboto-Light'" font-size="8">Team</text>
		</g>
		<g display="inline">
			<text transform="matrix(1 0 0 1 184.1533 120.2886)" font-family="'Roboto-Light'" font-size="8">Team</text>
			<text transform="matrix(1 0 0 1 184.1533 135.665)" font-family="'Roboto-Light'" font-size="8">Team</text>
		</g>
		<g display="inline">
			<text transform="matrix(1 0 0 1 184.1533 220.2275)" font-family="'Roboto-Light'" font-size="8">Team</text>
			<text transform="matrix(1 0 0 1 184.1533 235.604)" font-family="'Roboto-Light'" font-size="8">Team</text>
		</g>
		<g display="inline">
			<text transform="matrix(1 0 0 1 184.1533 320.1641)" font-family="'Roboto-Light'" font-size="8">Team</text>
			<text transform="matrix(1 0 0 1 184.1533 335.54)" font-family="'Roboto-Light'" font-size="8">Team</text>
		</g>
		<g display="inline">
			<text transform="matrix(1 0 0 1 184.1533 420.1025)" font-family="'Roboto-Light'" font-size="8">Team</text>
			<text transform="matrix(1 0 0 1 184.1533 435.4785)" font-family="'Roboto-Light'" font-size="8">Team</text>
		</g>
		<g display="inline">
			<text transform="matrix(1 0 0 1 99.1543 370.1328)" font-family="'Roboto-Light'" font-size="8">Team</text>
			<text transform="matrix(1 0 0 1 99.1543 385.5098)" font-family="'Roboto-Light'" font-size="8">Team</text>
		</g>
		<g display="inline">
			<text transform="matrix(1 0 0 1 99.1543 170.3926)" font-family="'Roboto-Light'" font-size="8">Team</text>
			<text transform="matrix(1 0 0 1 99.1543 185.769)" font-family="'Roboto-Light'" font-size="8">Team</text>
		</g>
		<g display="inline">
			<text transform="matrix(1 0 0 1 58.6543 270.3896)" font-family="'Roboto-Light'" font-size="8">Team</text>
			<text transform="matrix(1 0 0 1 58.6543 285.7656)" font-family="'Roboto-Light'" font-size="8">Team</text>
		</g>
	</g>
	<g id="Score">
		<g display="inline">
			<text transform="matrix(1 0 0 1 228.3271 145.8594)" font-family="'Roboto-Light'" font-size="8">XX</text>
			<text transform="matrix(1 0 0 1 228.3271 161.2358)" font-family="'Roboto-Light'" font-size="8">XX</text>
		</g>
		<g display="inline">
			<text transform="matrix(1 0 0 1 228.3271 95.4111)" font-family="'Roboto-Light'" font-size="8">XX</text>
			<text transform="matrix(1 0 0 1 228.3271 110.7876)" font-family="'Roboto-Light'" font-size="8">XX</text>
		</g>
		<g display="inline">
			<text transform="matrix(1 0 0 1 228.3271 195.2412)" font-family="'Roboto-Light'" font-size="8">XX</text>
			<text transform="matrix(1 0 0 1 228.3271 210.6177)" font-family="'Roboto-Light'" font-size="8">XX</text>
		</g>
		<g display="inline">
			<text transform="matrix(1 0 0 1 228.3271 245.1357)" font-family="'Roboto-Light'" font-size="8">XX</text>
			<text transform="matrix(1 0 0 1 228.3271 260.5117)" font-family="'Roboto-Light'" font-size="8">XX</text>
		</g>
		<g display="inline">
			<text transform="matrix(1 0 0 1 228.3271 295.3877)" font-family="'Roboto-Light'" font-size="8">XX</text>
			<text transform="matrix(1 0 0 1 228.3271 310.7637)" font-family="'Roboto-Light'" font-size="8">XX</text>
		</g>
		<g display="inline">
			<text transform="matrix(1 0 0 1 228.3271 345.1406)" font-family="'Roboto-Light'" font-size="8">XX</text>
			<text transform="matrix(1 0 0 1 228.3271 360.5176)" font-family="'Roboto-Light'" font-size="8">XX</text>
		</g>
		<g display="inline">
			<text transform="matrix(1 0 0 1 228.3271 395.1191)" font-family="'Roboto-Light'" font-size="8">XX</text>
			<text transform="matrix(1 0 0 1 228.3271 410.4961)" font-family="'Roboto-Light'" font-size="8">XX</text>
		</g>
		<g display="inline">
			<text transform="matrix(1 0 0 1 228.3271 445.4111)" font-family="'Roboto-Light'" font-size="8">XX</text>
			<text transform="matrix(1 0 0 1 228.3271 460.7871)" font-family="'Roboto-Light'" font-size="8">XX</text>
		</g>
		<g display="inline">
			<text transform="matrix(1 0 0 1 143.8271 120.2886)" font-family="'Roboto-Light'" font-size="8">XX</text>
			<text transform="matrix(1 0 0 1 143.8271 135.665)" font-family="'Roboto-Light'" font-size="8">XX</text>
		</g>
		<g display="inline">
			<text transform="matrix(1 0 0 1 143.8271 220.2275)" font-family="'Roboto-Light'" font-size="8">XX</text>
			<text transform="matrix(1 0 0 1 143.8271 235.604)" font-family="'Roboto-Light'" font-size="8">XX</text>
		</g>
		<g display="inline">
			<text transform="matrix(1 0 0 1 143.8271 320.1641)" font-family="'Roboto-Light'" font-size="8">XX</text>
			<text transform="matrix(1 0 0 1 143.8271 335.54)" font-family="'Roboto-Light'" font-size="8">XX</text>
		</g>
		<g display="inline">
			<text transform="matrix(1 0 0 1 143.8271 420.1025)" font-family="'Roboto-Light'" font-size="8">XX</text>
			<text transform="matrix(1 0 0 1 143.8271 435.4785)" font-family="'Roboto-Light'" font-size="8">XX</text>
		</g>
		<g display="inline">
			<text transform="matrix(1 0 0 1 58.8271 370.1328)" font-family="'Roboto-Light'" font-size="8">XX</text>
			<text transform="matrix(1 0 0 1 58.8271 385.5098)" font-family="'Roboto-Light'" font-size="8">XX</text>
		</g>
		<g display="inline">
			<text transform="matrix(1 0 0 1 58.8271 170.3926)" font-family="'Roboto-Light'" font-size="8">XX</text>
			<text transform="matrix(1 0 0 1 58.8271 185.769)" font-family="'Roboto-Light'" font-size="8">XX</text>
		</g>
		<g display="inline">
			<text transform="matrix(1 0 0 1 18.3271 270.3896)" font-family="'Roboto-Light'" font-size="8">XX</text>
			<text transform="matrix(1 0 0 1 18.3271 285.7656)" font-family="'Roboto-Light'" font-size="8">XX</text>
		</g>
	</g>
	<g id="Seed">
		<g display="inline">
			<text transform="matrix(1 0 0 1 297.8496 145.8594)" font-family="'Roboto-Light'" font-size="8">8</text>
			<text transform="matrix(1 0 0 1 297.8496 161.2358)" font-family="'Roboto-Light'" font-size="8">9</text>
		</g>
		<g display="inline">
			<text transform="matrix(1 0 0 1 297.8496 95.4111)" font-family="'Roboto-Light'" font-size="8">1</text>
			<text transform="matrix(1 0 0 1 293.416 110.7876)" font-family="'Roboto-Light'" font-size="8">16</text>
		</g>
		<g display="inline">
			<text transform="matrix(1 0 0 1 297.8496 195.2412)" font-family="'Roboto-Light'" font-size="8">5</text>
			<text transform="matrix(1 0 0 1 293.416 210.6177)" font-family="'Roboto-Light'" font-size="8">12</text>
		</g>
		<g display="inline">
			<text transform="matrix(1 0 0 1 297.8496 245.1357)" font-family="'Roboto-Light'" font-size="8">4</text>
			<text transform="matrix(1 0 0 1 293.416 260.5117)" font-family="'Roboto-Light'" font-size="8">13</text>
		</g>
		<g display="inline">
			<text transform="matrix(1 0 0 1 297.8496 295.3877)" font-family="'Roboto-Light'" font-size="8">6</text>
			<text transform="matrix(1 0 0 1 293.416 310.7637)" font-family="'Roboto-Light'" font-size="8">11</text>
		</g>
		<g display="inline">
			<text transform="matrix(1 0 0 1 297.8496 345.1406)" font-family="'Roboto-Light'" font-size="8">3</text>
			<text transform="matrix(1 0 0 1 293.416 360.5176)" font-family="'Roboto-Light'" font-size="8">14</text>
		</g>
		<g display="inline">
			<text transform="matrix(1 0 0 1 297.8496 395.1191)" font-family="'Roboto-Light'" font-size="8">7</text>
			<text transform="matrix(1 0 0 1 293.1855 410.4961)" font-family="'Roboto-Light'" font-size="8">10</text>
		</g>
		<g display="inline">
			<text transform="matrix(1 0 0 1 297.8496 445.4111)" font-family="'Roboto-Light'" font-size="8">2</text>
			<text transform="matrix(1 0 0 1 293.416 460.7871)" font-family="'Roboto-Light'" font-size="8">15</text>
		</g>
		<g display="inline">
			<text transform="matrix(1 0 0 1 208.0459 120.2886)" font-family="'Roboto-Light'" font-size="8">X</text>
			<text transform="matrix(1 0 0 1 208.0459 135.665)" font-family="'Roboto-Light'" font-size="8">X</text>
		</g>
		<g display="inline">
			<text transform="matrix(1 0 0 1 208.0459 220.2275)" font-family="'Roboto-Light'" font-size="8">X</text>
			<text transform="matrix(1 0 0 1 208.0459 235.604)" font-family="'Roboto-Light'" font-size="8">X</text>
		</g>
		<g display="inline">
			<text transform="matrix(1 0 0 1 208.0459 320.1641)" font-family="'Roboto-Light'" font-size="8">X</text>
			<text transform="matrix(1 0 0 1 208.0459 335.54)" font-family="'Roboto-Light'" font-size="8">X</text>
		</g>
		<g display="inline">
			<text transform="matrix(1 0 0 1 208.0459 420.1025)" font-family="'Roboto-Light'" font-size="8">X</text>
			<text transform="matrix(1 0 0 1 208.0459 435.4785)" font-family="'Roboto-Light'" font-size="8">X</text>
		</g>
		<g display="inline">
			<text transform="matrix(1 0 0 1 123.0459 370.1328)" font-family="'Roboto-Light'" font-size="8">X</text>
			<text transform="matrix(1 0 0 1 123.0459 385.5098)" font-family="'Roboto-Light'" font-size="8">X</text>
		</g>
		<g display="inline">
			<text transform="matrix(1 0 0 1 123.0459 170.3926)" font-family="'Roboto-Light'" font-size="8">X</text>
			<text transform="matrix(1 0 0 1 123.0459 185.769)" font-family="'Roboto-Light'" font-size="8">X</text>
		</g>
		<g display="inline">
			<text transform="matrix(1 0 0 1 82.5449 270.3896)" font-family="'Roboto-Light'" font-size="8">X</text>
			<text transform="matrix(1 0 0 1 82.5449 285.7656)" font-family="'Roboto-Light'" font-size="8">X</text>
		</g>
	</g>
</g>
<g id="PopOut" display="none">
</g>
<g id="Hover_x2F_Click" display="none">
</g>
<g id="DesktopWeb" display="none">
	<g id="FIrst_Round">
	</g>
	<g id="Second_Round">
	</g>
	<g id="Regional_Semis">
	</g>
	<g id="Regional_FInals">
	</g>
	<g id="National_Semis">
	</g>
	<g id="National_Champ" display="inline">
	</g>
</g>
</svg>
